ISO-10303-21;
HEADER;
FILE_DESCRIPTION(('FreeCAD Model'),'2;1');
FILE_NAME('Open CASCADE Shape Model','1974-01-01T00:00:00',(''),(''),
  'Open CASCADE STEP processor 7.7','FreeCAD','Unknown');
FILE_SCHEMA(('AUTOMOTIVE_DESIGN { 1 0 10303 214 1 1 1 1 }'));
ENDSEC;
DATA;
#1 = APPLICATION_PROTOCOL_DEFINITION('international standard',
  'automotive_design',2000,#2);
#2 = APPLICATION_CONTEXT(
  'core data for automotive mechanical design processes');
#3 = SHAPE_DEFINITION_REPRESENTATION(#4,#10);
#4 = PRODUCT_DEFINITION_SHAPE('','',#5);
#5 = PRODUCT_DEFINITION('design','',#6,#9);
#6 = PRODUCT_DEFINITION_FORMATION('','',#7);
#7 = PRODUCT('k1_flyminipad_top_step','k1_flyminipad_top_step','',(#8));
#8 = PRODUCT_CONTEXT('',#2,'mechanical');
#9 = PRODUCT_DEFINITION_CONTEXT('part definition',#2,'design');
#10 = ADVANCED_BREP_SHAPE_REPRESENTATION('',(#11,#15),#1545);
#11 = AXIS2_PLACEMENT_3D('',#12,#13,#14);
#12 = CARTESIAN_POINT('',(0.,0.,0.));
#13 = DIRECTION('',(0.,0.,1.));
#14 = DIRECTION('',(1.,0.,-0.));
#15 = MANIFOLD_SOLID_BREP('',#16);
#16 = CLOSED_SHELL('',(#17,#127,#158,#182,#206,#223,#254,#279,#304,#328,
    #352,#377,#402,#419,#450,#474,#498,#515,#601,#647,#679,#703,#728,
    #752,#777,#801,#826,#843,#906,#930,#954,#1003,#1151,#1176,#1217,
    #1234,#1259,#1300,#1317,#1342,#1367,#1392,#1409,#1426,#1443,#1455,
    #1472,#1484,#1509,#1518,#1527,#1536));
#17 = ADVANCED_FACE('',(#18,#52),#122,.T.);
#18 = FACE_BOUND('',#19,.T.);
#19 = EDGE_LOOP('',(#20,#30,#38,#46));
#20 = ORIENTED_EDGE('',*,*,#21,.F.);
#21 = EDGE_CURVE('',#22,#24,#26,.T.);
#22 = VERTEX_POINT('',#23);
#23 = CARTESIAN_POINT('',(-36.3,-13.4,-23.20948082142));
#24 = VERTEX_POINT('',#25);
#25 = CARTESIAN_POINT('',(42.3,-13.4,-23.20948082142));
#26 = LINE('',#27,#28);
#27 = CARTESIAN_POINT('',(-35.5,-13.4,-23.20948082142));
#28 = VECTOR('',#29,1.);
#29 = DIRECTION('',(1.,-1.219E-14,7.04E-15));
#30 = ORIENTED_EDGE('',*,*,#31,.F.);
#31 = EDGE_CURVE('',#32,#22,#34,.T.);
#32 = VERTEX_POINT('',#33);
#33 = CARTESIAN_POINT('',(-36.3,13.400000000002,23.209480821422));
#34 = LINE('',#35,#36);
#35 = CARTESIAN_POINT('',(-36.3,13.000000000002,22.516660498394));
#36 = VECTOR('',#37,1.);
#37 = DIRECTION('',(0.,-0.5,-0.866025403784));
#38 = ORIENTED_EDGE('',*,*,#39,.F.);
#39 = EDGE_CURVE('',#40,#32,#42,.T.);
#40 = VERTEX_POINT('',#41);
#41 = CARTESIAN_POINT('',(42.3,13.400000000001,23.209480821422));
#42 = LINE('',#43,#44);
#43 = CARTESIAN_POINT('',(41.5,13.400000000001,23.209480821422));
#44 = VECTOR('',#45,1.);
#45 = DIRECTION('',(-1.,1.219E-14,-7.04E-15));
#46 = ORIENTED_EDGE('',*,*,#47,.F.);
#47 = EDGE_CURVE('',#24,#40,#48,.T.);
#48 = LINE('',#49,#50);
#49 = CARTESIAN_POINT('',(42.3,-13.,-22.51666049839));
#50 = VECTOR('',#51,1.);
#51 = DIRECTION('',(0.,0.5,0.866025403784));
#52 = FACE_BOUND('',#53,.T.);
#53 = EDGE_LOOP('',(#54,#64,#73,#81,#90,#98,#107,#115));
#54 = ORIENTED_EDGE('',*,*,#55,.T.);
#55 = EDGE_CURVE('',#56,#58,#60,.T.);
#56 = VERTEX_POINT('',#57);
#57 = CARTESIAN_POINT('',(-60.7,15.900000000002,27.539607840344));
#58 = VERTEX_POINT('',#59);
#59 = CARTESIAN_POINT('',(-60.7,-15.9,-27.53960784034));
#60 = LINE('',#61,#62);
#61 = CARTESIAN_POINT('',(-60.7,18.400000000003,31.869734859266));
#62 = VECTOR('',#63,1.);
#63 = DIRECTION('',(6.21778264903E-17,-0.5,-0.866025403784));
#64 = ORIENTED_EDGE('',*,*,#65,.T.);
#65 = EDGE_CURVE('',#58,#66,#68,.T.);
#66 = VERTEX_POINT('',#67);
#67 = CARTESIAN_POINT('',(-55.7,-18.4,-31.86973485926));
#68 = CIRCLE('',#69,5.);
#69 = AXIS2_PLACEMENT_3D('',#70,#71,#72);
#70 = CARTESIAN_POINT('',(-55.7,-15.9,-27.53960784034));
#71 = DIRECTION('',(-1.408E-14,-0.866025403784,0.5));
#72 = DIRECTION('',(0.,0.5,0.866025403784));
#73 = ORIENTED_EDGE('',*,*,#74,.T.);
#74 = EDGE_CURVE('',#66,#75,#77,.T.);
#75 = VERTEX_POINT('',#76);
#76 = CARTESIAN_POINT('',(55.7,-18.4,-31.86973485926));
#77 = LINE('',#78,#79);
#78 = CARTESIAN_POINT('',(-60.7,-18.4,-31.86973485926));
#79 = VECTOR('',#80,1.);
#80 = DIRECTION('',(1.,-1.2E-14,7.E-15));
#81 = ORIENTED_EDGE('',*,*,#82,.T.);
#82 = EDGE_CURVE('',#75,#83,#85,.T.);
#83 = VERTEX_POINT('',#84);
#84 = CARTESIAN_POINT('',(60.7,-15.9,-27.53960784034));
#85 = CIRCLE('',#86,5.);
#86 = AXIS2_PLACEMENT_3D('',#87,#88,#89);
#87 = CARTESIAN_POINT('',(55.7,-15.9,-27.53960784034));
#88 = DIRECTION('',(-1.408E-14,-0.866025403784,0.5));
#89 = DIRECTION('',(0.,0.5,0.866025403784));
#90 = ORIENTED_EDGE('',*,*,#91,.T.);
#91 = EDGE_CURVE('',#83,#92,#94,.T.);
#92 = VERTEX_POINT('',#93);
#93 = CARTESIAN_POINT('',(60.7,15.900000000001,27.539607840345));
#94 = LINE('',#95,#96);
#95 = CARTESIAN_POINT('',(60.7,-18.4,-31.86973485926));
#96 = VECTOR('',#97,1.);
#97 = DIRECTION('',(-6.21778264903E-17,0.5,0.866025403784));
#98 = ORIENTED_EDGE('',*,*,#99,.F.);
#99 = EDGE_CURVE('',#100,#92,#102,.T.);
#100 = VERTEX_POINT('',#101);
#101 = CARTESIAN_POINT('',(55.7,18.400000000001,31.869734859267));
#102 = CIRCLE('',#103,5.);
#103 = AXIS2_PLACEMENT_3D('',#104,#105,#106);
#104 = CARTESIAN_POINT('',(55.7,15.900000000001,27.539607840345));
#105 = DIRECTION('',(1.408E-14,0.866025403784,-0.5));
#106 = DIRECTION('',(0.,0.5,0.866025403784));
#107 = ORIENTED_EDGE('',*,*,#108,.T.);
#108 = EDGE_CURVE('',#100,#109,#111,.T.);
#109 = VERTEX_POINT('',#110);
#110 = CARTESIAN_POINT('',(-55.7,18.400000000003,31.869734859266));
#111 = LINE('',#112,#113);
#112 = CARTESIAN_POINT('',(60.7,18.400000000001,31.869734859267));
#113 = VECTOR('',#114,1.);
#114 = DIRECTION('',(-1.,1.2E-14,-7.E-15));
#115 = ORIENTED_EDGE('',*,*,#116,.F.);
#116 = EDGE_CURVE('',#56,#109,#117,.T.);
#117 = CIRCLE('',#118,5.);
#118 = AXIS2_PLACEMENT_3D('',#119,#120,#121);
#119 = CARTESIAN_POINT('',(-55.7,15.900000000002,27.539607840344));
#120 = DIRECTION('',(1.408E-14,0.866025403784,-0.5));
#121 = DIRECTION('',(0.,0.5,0.866025403784));
#122 = PLANE('',#123);
#123 = AXIS2_PLACEMENT_3D('',#124,#125,#126);
#124 = CARTESIAN_POINT('',(-2.33E-15,1.3817E-13,-8.104E-14));
#125 = DIRECTION('',(-1.405E-14,-0.866025403784,0.5));
#126 = DIRECTION('',(0.,-0.5,-0.866025403784));
#127 = ADVANCED_FACE('',(#128),#153,.F.);
#128 = FACE_BOUND('',#129,.T.);
#129 = EDGE_LOOP('',(#130,#138,#139,#147));
#130 = ORIENTED_EDGE('',*,*,#131,.F.);
#131 = EDGE_CURVE('',#22,#132,#134,.T.);
#132 = VERTEX_POINT('',#133);
#133 = CARTESIAN_POINT('',(-35.5,-12.17432889101,-22.99336193543));
#134 = LINE('',#135,#136);
#135 = CARTESIAN_POINT('',(-28.18132607653,-0.961469910863,
    -21.01623236635));
#136 = VECTOR('',#137,1.);
#137 = DIRECTION('',(0.540716203061,0.828425285318,0.146073729303));
#138 = ORIENTED_EDGE('',*,*,#21,.T.);
#139 = ORIENTED_EDGE('',*,*,#140,.T.);
#140 = EDGE_CURVE('',#24,#141,#143,.T.);
#141 = VERTEX_POINT('',#142);
#142 = CARTESIAN_POINT('',(41.5,-12.17432889101,-22.99336193543));
#143 = LINE('',#144,#145);
#144 = CARTESIAN_POINT('',(30.526650923373,4.6378172741,-20.02892696291)
  );
#145 = VECTOR('',#146,1.);
#146 = DIRECTION('',(-0.540716203061,0.828425285318,0.146073729303));
#147 = ORIENTED_EDGE('',*,*,#148,.F.);
#148 = EDGE_CURVE('',#132,#141,#149,.T.);
#149 = LINE('',#150,#151);
#150 = CARTESIAN_POINT('',(-35.5,-12.17432889101,-22.99336193543));
#151 = VECTOR('',#152,1.);
#152 = DIRECTION('',(1.,-1.219E-14,7.04E-15));
#153 = PLANE('',#154);
#154 = AXIS2_PLACEMENT_3D('',#155,#156,#157);
#155 = CARTESIAN_POINT('',(-35.5,-12.7871644455,-23.10142137842));
#156 = DIRECTION('',(9.13E-15,0.173648177667,-0.984807753012));
#157 = DIRECTION('',(-1.,1.220963960176E-14,-7.117956080001E-15));
#158 = ADVANCED_FACE('',(#159),#177,.F.);
#159 = FACE_BOUND('',#160,.T.);
#160 = EDGE_LOOP('',(#161,#169,#170,#171));
#161 = ORIENTED_EDGE('',*,*,#162,.F.);
#162 = EDGE_CURVE('',#32,#163,#165,.T.);
#163 = VERTEX_POINT('',#164);
#164 = CARTESIAN_POINT('',(-35.5,13.825671108992,22.039959061357));
#165 = LINE('',#166,#167);
#166 = CARTESIAN_POINT('',(-24.52665092337,19.664468197474,
    5.997995903972));
#167 = VECTOR('',#168,1.);
#168 = DIRECTION('',(0.540716203061,0.287709082257,-0.790474206875));
#169 = ORIENTED_EDGE('',*,*,#31,.T.);
#170 = ORIENTED_EDGE('',*,*,#131,.T.);
#171 = ORIENTED_EDGE('',*,*,#172,.F.);
#172 = EDGE_CURVE('',#163,#132,#173,.T.);
#173 = LINE('',#174,#175);
#174 = CARTESIAN_POINT('',(-35.5,13.825671108992,22.039959061357));
#175 = VECTOR('',#176,1.);
#176 = DIRECTION('',(0.,-0.5,-0.866025403784));
#177 = PLANE('',#178);
#178 = AXIS2_PLACEMENT_3D('',#179,#180,#181);
#179 = CARTESIAN_POINT('',(-35.9,13.412835554497,22.278309779875));
#180 = DIRECTION('',(-0.766044443119,0.556670399226,-0.321393804843));
#181 = DIRECTION('',(0.,0.5,0.866025403784));
#182 = ADVANCED_FACE('',(#183),#201,.F.);
#183 = FACE_BOUND('',#184,.T.);
#184 = EDGE_LOOP('',(#185,#186,#187,#195));
#185 = ORIENTED_EDGE('',*,*,#140,.F.);
#186 = ORIENTED_EDGE('',*,*,#47,.T.);
#187 = ORIENTED_EDGE('',*,*,#188,.T.);
#188 = EDGE_CURVE('',#40,#189,#191,.T.);
#189 = VERTEX_POINT('',#190);
#190 = CARTESIAN_POINT('',(41.5,13.825671108991,22.039959061357));
#191 = LINE('',#192,#193);
#192 = CARTESIAN_POINT('',(34.181326076531,17.719856165668,
    11.340773550957));
#193 = VECTOR('',#194,1.);
#194 = DIRECTION('',(-0.540716203061,0.287709082257,-0.790474206875));
#195 = ORIENTED_EDGE('',*,*,#196,.F.);
#196 = EDGE_CURVE('',#141,#189,#197,.T.);
#197 = LINE('',#198,#199);
#198 = CARTESIAN_POINT('',(41.5,-12.17432889101,-22.99336193543));
#199 = VECTOR('',#200,1.);
#200 = DIRECTION('',(0.,0.5,0.866025403784));
#201 = PLANE('',#202);
#202 = AXIS2_PLACEMENT_3D('',#203,#204,#205);
#203 = CARTESIAN_POINT('',(41.9,-12.5871644455,-22.75501121691));
#204 = DIRECTION('',(0.766044443119,0.556670399226,-0.321393804843));
#205 = DIRECTION('',(-0.,-0.5,-0.866025403784));
#206 = ADVANCED_FACE('',(#207),#218,.F.);
#207 = FACE_BOUND('',#208,.T.);
#208 = EDGE_LOOP('',(#209,#210,#211,#212));
#209 = ORIENTED_EDGE('',*,*,#188,.F.);
#210 = ORIENTED_EDGE('',*,*,#39,.T.);
#211 = ORIENTED_EDGE('',*,*,#162,.T.);
#212 = ORIENTED_EDGE('',*,*,#213,.F.);
#213 = EDGE_CURVE('',#189,#163,#214,.T.);
#214 = LINE('',#215,#216);
#215 = CARTESIAN_POINT('',(41.5,13.825671108991,22.039959061357));
#216 = VECTOR('',#217,1.);
#217 = DIRECTION('',(-1.,1.219E-14,-7.04E-15));
#218 = PLANE('',#219);
#219 = AXIS2_PLACEMENT_3D('',#220,#221,#222);
#220 = CARTESIAN_POINT('',(41.5,13.612835554496,22.62471994139));
#221 = DIRECTION('',(8.92E-15,0.939692620786,0.342020143326));
#222 = DIRECTION('',(1.,-1.206944810148E-14,7.080200874635E-15));
#223 = ADVANCED_FACE('',(#224),#249,.T.);
#224 = FACE_BOUND('',#225,.T.);
#225 = EDGE_LOOP('',(#226,#227,#235,#243));
#226 = ORIENTED_EDGE('',*,*,#55,.F.);
#227 = ORIENTED_EDGE('',*,*,#228,.T.);
#228 = EDGE_CURVE('',#56,#229,#231,.T.);
#229 = VERTEX_POINT('',#230);
#230 = CARTESIAN_POINT('',(-60.7,21.962177826497,24.039607840341));
#231 = LINE('',#232,#233);
#232 = CARTESIAN_POINT('',(-60.7,15.900000000002,27.539607840344));
#233 = VECTOR('',#234,1.);
#234 = DIRECTION('',(1.408E-14,0.866025403784,-0.5));
#235 = ORIENTED_EDGE('',*,*,#236,.F.);
#236 = EDGE_CURVE('',#237,#229,#239,.T.);
#237 = VERTEX_POINT('',#238);
#238 = CARTESIAN_POINT('',(-60.7,-9.837822173515,-31.03960784034));
#239 = LINE('',#240,#241);
#240 = CARTESIAN_POINT('',(-60.7,15.262177826494,12.434867429631));
#241 = VECTOR('',#242,1.);
#242 = DIRECTION('',(0.,0.5,0.866025403784));
#243 = ORIENTED_EDGE('',*,*,#244,.F.);
#244 = EDGE_CURVE('',#58,#237,#245,.T.);
#245 = LINE('',#246,#247);
#246 = CARTESIAN_POINT('',(-60.7,-15.9,-27.53960784034));
#247 = VECTOR('',#248,1.);
#248 = DIRECTION('',(1.408E-14,0.866025403784,-0.5));
#249 = PLANE('',#250);
#250 = AXIS2_PLACEMENT_3D('',#251,#252,#253);
#251 = CARTESIAN_POINT('',(-60.7,18.400000000003,31.869734859266));
#252 = DIRECTION('',(-1.,1.219E-14,-7.04E-15));
#253 = DIRECTION('',(1.818842641667E-18,-0.5,-0.866025403784));
#254 = ADVANCED_FACE('',(#255),#274,.T.);
#255 = FACE_BOUND('',#256,.T.);
#256 = EDGE_LOOP('',(#257,#258,#266,#273));
#257 = ORIENTED_EDGE('',*,*,#116,.T.);
#258 = ORIENTED_EDGE('',*,*,#259,.T.);
#259 = EDGE_CURVE('',#109,#260,#262,.T.);
#260 = VERTEX_POINT('',#261);
#261 = CARTESIAN_POINT('',(-55.7,24.462177826498,28.369734859263));
#262 = LINE('',#263,#264);
#263 = CARTESIAN_POINT('',(-55.7,18.400000000003,31.869734859266));
#264 = VECTOR('',#265,1.);
#265 = DIRECTION('',(1.408E-14,0.866025403784,-0.5));
#266 = ORIENTED_EDGE('',*,*,#267,.F.);
#267 = EDGE_CURVE('',#229,#260,#268,.T.);
#268 = CIRCLE('',#269,5.);
#269 = AXIS2_PLACEMENT_3D('',#270,#271,#272);
#270 = CARTESIAN_POINT('',(-55.7,21.962177826497,24.039607840341));
#271 = DIRECTION('',(1.408E-14,0.866025403784,-0.5));
#272 = DIRECTION('',(0.,0.5,0.866025403784));
#273 = ORIENTED_EDGE('',*,*,#228,.F.);
#274 = CYLINDRICAL_SURFACE('',#275,5.);
#275 = AXIS2_PLACEMENT_3D('',#276,#277,#278);
#276 = CARTESIAN_POINT('',(-55.7,15.900000000002,27.539607840344));
#277 = DIRECTION('',(1.408E-14,0.866025403784,-0.5));
#278 = DIRECTION('',(-1.,1.219272826396E-14,-7.041575163934E-15));
#279 = ADVANCED_FACE('',(#280),#299,.T.);
#280 = FACE_BOUND('',#281,.F.);
#281 = EDGE_LOOP('',(#282,#283,#291,#298));
#282 = ORIENTED_EDGE('',*,*,#65,.T.);
#283 = ORIENTED_EDGE('',*,*,#284,.T.);
#284 = EDGE_CURVE('',#66,#285,#287,.T.);
#285 = VERTEX_POINT('',#286);
#286 = CARTESIAN_POINT('',(-55.7,-12.33782217351,-35.36973485926));
#287 = LINE('',#288,#289);
#288 = CARTESIAN_POINT('',(-55.7,-18.4,-31.86973485926));
#289 = VECTOR('',#290,1.);
#290 = DIRECTION('',(1.408E-14,0.866025403784,-0.5));
#291 = ORIENTED_EDGE('',*,*,#292,.F.);
#292 = EDGE_CURVE('',#237,#285,#293,.T.);
#293 = CIRCLE('',#294,5.);
#294 = AXIS2_PLACEMENT_3D('',#295,#296,#297);
#295 = CARTESIAN_POINT('',(-55.7,-9.837822173515,-31.03960784034));
#296 = DIRECTION('',(-1.408E-14,-0.866025403784,0.5));
#297 = DIRECTION('',(0.,0.5,0.866025403784));
#298 = ORIENTED_EDGE('',*,*,#244,.F.);
#299 = CYLINDRICAL_SURFACE('',#300,5.);
#300 = AXIS2_PLACEMENT_3D('',#301,#302,#303);
#301 = CARTESIAN_POINT('',(-55.7,-15.9,-27.53960784034));
#302 = DIRECTION('',(1.408E-14,0.866025403784,-0.5));
#303 = DIRECTION('',(-1.,1.219272826396E-14,-7.041575163934E-15));
#304 = ADVANCED_FACE('',(#305),#323,.T.);
#305 = FACE_BOUND('',#306,.T.);
#306 = EDGE_LOOP('',(#307,#308,#316,#322));
#307 = ORIENTED_EDGE('',*,*,#108,.F.);
#308 = ORIENTED_EDGE('',*,*,#309,.T.);
#309 = EDGE_CURVE('',#100,#310,#312,.T.);
#310 = VERTEX_POINT('',#311);
#311 = CARTESIAN_POINT('',(55.7,24.462177826498,28.369734859263));
#312 = LINE('',#313,#314);
#313 = CARTESIAN_POINT('',(55.7,18.400000000001,31.869734859267));
#314 = VECTOR('',#315,1.);
#315 = DIRECTION('',(1.408E-14,0.866025403784,-0.5));
#316 = ORIENTED_EDGE('',*,*,#317,.F.);
#317 = EDGE_CURVE('',#260,#310,#318,.T.);
#318 = LINE('',#319,#320);
#319 = CARTESIAN_POINT('',(30.35,24.462177826498,28.369734859263));
#320 = VECTOR('',#321,1.);
#321 = DIRECTION('',(1.,0.,0.));
#322 = ORIENTED_EDGE('',*,*,#259,.F.);
#323 = PLANE('',#324);
#324 = AXIS2_PLACEMENT_3D('',#325,#326,#327);
#325 = CARTESIAN_POINT('',(60.7,18.400000000001,31.869734859267));
#326 = DIRECTION('',(0.,0.5,0.866025403784));
#327 = DIRECTION('',(-1.,1.219090942132E-14,-7.038424836067E-15));
#328 = ADVANCED_FACE('',(#329),#347,.T.);
#329 = FACE_BOUND('',#330,.T.);
#330 = EDGE_LOOP('',(#331,#332,#333,#341));
#331 = ORIENTED_EDGE('',*,*,#74,.F.);
#332 = ORIENTED_EDGE('',*,*,#284,.T.);
#333 = ORIENTED_EDGE('',*,*,#334,.F.);
#334 = EDGE_CURVE('',#335,#285,#337,.T.);
#335 = VERTEX_POINT('',#336);
#336 = CARTESIAN_POINT('',(55.7,-12.33782217351,-35.36973485926));
#337 = LINE('',#338,#339);
#338 = CARTESIAN_POINT('',(-30.35,-12.33782217351,-35.36973485926));
#339 = VECTOR('',#340,1.);
#340 = DIRECTION('',(-1.,0.,0.));
#341 = ORIENTED_EDGE('',*,*,#342,.F.);
#342 = EDGE_CURVE('',#75,#335,#343,.T.);
#343 = LINE('',#344,#345);
#344 = CARTESIAN_POINT('',(55.7,-18.4,-31.86973485926));
#345 = VECTOR('',#346,1.);
#346 = DIRECTION('',(1.408E-14,0.866025403784,-0.5));
#347 = PLANE('',#348);
#348 = AXIS2_PLACEMENT_3D('',#349,#350,#351);
#349 = CARTESIAN_POINT('',(-60.7,-18.4,-31.86973485926));
#350 = DIRECTION('',(0.,-0.5,-0.866025403784));
#351 = DIRECTION('',(1.,-1.219090942132E-14,7.038424836067E-15));
#352 = ADVANCED_FACE('',(#353),#372,.T.);
#353 = FACE_BOUND('',#354,.T.);
#354 = EDGE_LOOP('',(#355,#356,#364,#371));
#355 = ORIENTED_EDGE('',*,*,#99,.T.);
#356 = ORIENTED_EDGE('',*,*,#357,.T.);
#357 = EDGE_CURVE('',#92,#358,#360,.T.);
#358 = VERTEX_POINT('',#359);
#359 = CARTESIAN_POINT('',(60.7,21.962177826497,24.039607840341));
#360 = LINE('',#361,#362);
#361 = CARTESIAN_POINT('',(60.7,15.900000000001,27.539607840345));
#362 = VECTOR('',#363,1.);
#363 = DIRECTION('',(1.408E-14,0.866025403784,-0.5));
#364 = ORIENTED_EDGE('',*,*,#365,.F.);
#365 = EDGE_CURVE('',#310,#358,#366,.T.);
#366 = CIRCLE('',#367,5.);
#367 = AXIS2_PLACEMENT_3D('',#368,#369,#370);
#368 = CARTESIAN_POINT('',(55.7,21.962177826497,24.039607840341));
#369 = DIRECTION('',(1.408E-14,0.866025403784,-0.5));
#370 = DIRECTION('',(0.,0.5,0.866025403784));
#371 = ORIENTED_EDGE('',*,*,#309,.F.);
#372 = CYLINDRICAL_SURFACE('',#373,5.);
#373 = AXIS2_PLACEMENT_3D('',#374,#375,#376);
#374 = CARTESIAN_POINT('',(55.7,15.900000000001,27.539607840345));
#375 = DIRECTION('',(1.408E-14,0.866025403784,-0.5));
#376 = DIRECTION('',(0.,0.5,0.866025403784));
#377 = ADVANCED_FACE('',(#378),#397,.T.);
#378 = FACE_BOUND('',#379,.F.);
#379 = EDGE_LOOP('',(#380,#381,#389,#396));
#380 = ORIENTED_EDGE('',*,*,#82,.T.);
#381 = ORIENTED_EDGE('',*,*,#382,.T.);
#382 = EDGE_CURVE('',#83,#383,#385,.T.);
#383 = VERTEX_POINT('',#384);
#384 = CARTESIAN_POINT('',(60.7,-9.837822173515,-31.03960784034));
#385 = LINE('',#386,#387);
#386 = CARTESIAN_POINT('',(60.7,-15.9,-27.53960784034));
#387 = VECTOR('',#388,1.);
#388 = DIRECTION('',(1.408E-14,0.866025403784,-0.5));
#389 = ORIENTED_EDGE('',*,*,#390,.F.);
#390 = EDGE_CURVE('',#335,#383,#391,.T.);
#391 = CIRCLE('',#392,5.);
#392 = AXIS2_PLACEMENT_3D('',#393,#394,#395);
#393 = CARTESIAN_POINT('',(55.7,-9.837822173515,-31.03960784034));
#394 = DIRECTION('',(-1.408E-14,-0.866025403784,0.5));
#395 = DIRECTION('',(0.,0.5,0.866025403784));
#396 = ORIENTED_EDGE('',*,*,#342,.F.);
#397 = CYLINDRICAL_SURFACE('',#398,5.);
#398 = AXIS2_PLACEMENT_3D('',#399,#400,#401);
#399 = CARTESIAN_POINT('',(55.7,-15.9,-27.53960784034));
#400 = DIRECTION('',(1.408E-14,0.866025403784,-0.5));
#401 = DIRECTION('',(0.,-0.5,-0.866025403784));
#402 = ADVANCED_FACE('',(#403),#414,.T.);
#403 = FACE_BOUND('',#404,.T.);
#404 = EDGE_LOOP('',(#405,#406,#407,#413));
#405 = ORIENTED_EDGE('',*,*,#91,.F.);
#406 = ORIENTED_EDGE('',*,*,#382,.T.);
#407 = ORIENTED_EDGE('',*,*,#408,.F.);
#408 = EDGE_CURVE('',#358,#383,#409,.T.);
#409 = LINE('',#410,#411);
#410 = CARTESIAN_POINT('',(60.7,-3.137822173513,-19.43486742963));
#411 = VECTOR('',#412,1.);
#412 = DIRECTION('',(-0.,-0.5,-0.866025403784));
#413 = ORIENTED_EDGE('',*,*,#357,.F.);
#414 = PLANE('',#415);
#415 = AXIS2_PLACEMENT_3D('',#416,#417,#418);
#416 = CARTESIAN_POINT('',(60.7,-18.4,-31.86973485926));
#417 = DIRECTION('',(1.,-1.219E-14,7.04E-15));
#418 = DIRECTION('',(-1.818842641667E-18,0.5,0.866025403784));
#419 = ADVANCED_FACE('',(#420),#445,.T.);
#420 = FACE_BOUND('',#421,.T.);
#421 = EDGE_LOOP('',(#422,#430,#438,#444));
#422 = ORIENTED_EDGE('',*,*,#423,.T.);
#423 = EDGE_CURVE('',#141,#424,#426,.T.);
#424 = VERTEX_POINT('',#425);
#425 = CARTESIAN_POINT('',(41.5,-11.90880799123,-23.14666049839));
#426 = LINE('',#427,#428);
#427 = CARTESIAN_POINT('',(41.5,-13.,-22.51666049839));
#428 = VECTOR('',#429,1.);
#429 = DIRECTION('',(1.408E-14,0.866025403784,-0.5));
#430 = ORIENTED_EDGE('',*,*,#431,.F.);
#431 = EDGE_CURVE('',#432,#424,#434,.T.);
#432 = VERTEX_POINT('',#433);
#433 = CARTESIAN_POINT('',(-35.5,-11.90880799123,-23.14666049839));
#434 = LINE('',#435,#436);
#435 = CARTESIAN_POINT('',(-17.75,-11.90880799123,-23.14666049839));
#436 = VECTOR('',#437,1.);
#437 = DIRECTION('',(1.,-2.968E-14,1.714E-14));
#438 = ORIENTED_EDGE('',*,*,#439,.F.);
#439 = EDGE_CURVE('',#132,#432,#440,.T.);
#440 = LINE('',#441,#442);
#441 = CARTESIAN_POINT('',(-35.5,-12.08201307199,-23.04666049839));
#442 = VECTOR('',#443,1.);
#443 = DIRECTION('',(3.427E-14,0.866025403784,-0.5));
#444 = ORIENTED_EDGE('',*,*,#148,.T.);
#445 = PLANE('',#446);
#446 = AXIS2_PLACEMENT_3D('',#447,#448,#449);
#447 = CARTESIAN_POINT('',(3.,-12.04156844112,-23.07001121691));
#448 = DIRECTION('',(0.,0.5,0.866025403784));
#449 = DIRECTION('',(0.,0.866025403784,-0.5));
#450 = ADVANCED_FACE('',(#451),#469,.T.);
#451 = FACE_BOUND('',#452,.T.);
#452 = EDGE_LOOP('',(#453,#454,#462,#468));
#453 = ORIENTED_EDGE('',*,*,#439,.T.);
#454 = ORIENTED_EDGE('',*,*,#455,.F.);
#455 = EDGE_CURVE('',#456,#432,#458,.T.);
#456 = VERTEX_POINT('',#457);
#457 = CARTESIAN_POINT('',(-35.5,14.09119200877,21.886660498394));
#458 = LINE('',#459,#460);
#459 = CARTESIAN_POINT('',(-35.5,7.591192008769,10.628330249197));
#460 = VECTOR('',#461,1.);
#461 = DIRECTION('',(-0.,-0.5,-0.866025403784));
#462 = ORIENTED_EDGE('',*,*,#463,.F.);
#463 = EDGE_CURVE('',#163,#456,#464,.T.);
#464 = LINE('',#465,#466);
#465 = CARTESIAN_POINT('',(-35.5,13.917986928013,21.986660498394));
#466 = VECTOR('',#467,1.);
#467 = DIRECTION('',(3.427E-14,0.866025403784,-0.5));
#468 = ORIENTED_EDGE('',*,*,#172,.T.);
#469 = PLANE('',#470);
#470 = AXIS2_PLACEMENT_3D('',#471,#472,#473);
#471 = CARTESIAN_POINT('',(-35.5,0.95843155888,-0.553350718518));
#472 = DIRECTION('',(1.,-4.009E-14,2.315E-14));
#473 = DIRECTION('',(4.009E-14,1.,0.));
#474 = ADVANCED_FACE('',(#475),#493,.T.);
#475 = FACE_BOUND('',#476,.T.);
#476 = EDGE_LOOP('',(#477,#485,#491,#492));
#477 = ORIENTED_EDGE('',*,*,#478,.T.);
#478 = EDGE_CURVE('',#189,#479,#481,.T.);
#479 = VERTEX_POINT('',#480);
#480 = CARTESIAN_POINT('',(41.5,14.091192008768,21.886660498396));
#481 = LINE('',#482,#483);
#482 = CARTESIAN_POINT('',(41.5,13.000000000001,22.516660498395));
#483 = VECTOR('',#484,1.);
#484 = DIRECTION('',(1.408E-14,0.866025403784,-0.5));
#485 = ORIENTED_EDGE('',*,*,#486,.F.);
#486 = EDGE_CURVE('',#424,#479,#487,.T.);
#487 = LINE('',#488,#489);
#488 = CARTESIAN_POINT('',(41.5,-5.408807991236,-11.88833024919));
#489 = VECTOR('',#490,1.);
#490 = DIRECTION('',(0.,0.5,0.866025403784));
#491 = ORIENTED_EDGE('',*,*,#423,.F.);
#492 = ORIENTED_EDGE('',*,*,#196,.T.);
#493 = PLANE('',#494);
#494 = AXIS2_PLACEMENT_3D('',#495,#496,#497);
#495 = CARTESIAN_POINT('',(41.5,0.958431558878,-0.553350718517));
#496 = DIRECTION('',(-1.,4.009E-14,-2.315E-14));
#497 = DIRECTION('',(-4.009E-14,-1.,0.));
#498 = ADVANCED_FACE('',(#499),#510,.T.);
#499 = FACE_BOUND('',#500,.T.);
#500 = EDGE_LOOP('',(#501,#502,#508,#509));
#501 = ORIENTED_EDGE('',*,*,#463,.T.);
#502 = ORIENTED_EDGE('',*,*,#503,.F.);
#503 = EDGE_CURVE('',#479,#456,#504,.T.);
#504 = LINE('',#505,#506);
#505 = CARTESIAN_POINT('',(20.75,14.091192008768,21.886660498395));
#506 = VECTOR('',#507,1.);
#507 = DIRECTION('',(-1.,2.968E-14,-1.714E-14));
#508 = ORIENTED_EDGE('',*,*,#478,.F.);
#509 = ORIENTED_EDGE('',*,*,#213,.T.);
#510 = PLANE('',#511);
#511 = AXIS2_PLACEMENT_3D('',#512,#513,#514);
#512 = CARTESIAN_POINT('',(3.,13.95843155888,21.963309779876));
#513 = DIRECTION('',(-0.,-0.5,-0.866025403784));
#514 = DIRECTION('',(0.,-0.866025403784,0.5));
#515 = ADVANCED_FACE('',(#516,#526),#596,.F.);
#516 = FACE_BOUND('',#517,.F.);
#517 = EDGE_LOOP('',(#518,#519,#520,#521,#522,#523,#524,#525));
#518 = ORIENTED_EDGE('',*,*,#236,.F.);
#519 = ORIENTED_EDGE('',*,*,#292,.T.);
#520 = ORIENTED_EDGE('',*,*,#334,.F.);
#521 = ORIENTED_EDGE('',*,*,#390,.T.);
#522 = ORIENTED_EDGE('',*,*,#408,.F.);
#523 = ORIENTED_EDGE('',*,*,#365,.F.);
#524 = ORIENTED_EDGE('',*,*,#317,.F.);
#525 = ORIENTED_EDGE('',*,*,#267,.F.);
#526 = FACE_BOUND('',#527,.F.);
#527 = EDGE_LOOP('',(#528,#539,#547,#556,#564,#573,#581,#590));
#528 = ORIENTED_EDGE('',*,*,#529,.F.);
#529 = EDGE_CURVE('',#530,#532,#534,.T.);
#530 = VERTEX_POINT('',#531);
#531 = CARTESIAN_POINT('',(59.2,21.937177826491,23.996306570156));
#532 = VERTEX_POINT('',#533);
#533 = CARTESIAN_POINT('',(55.5,23.787177826491,27.200600564158));
#534 = CIRCLE('',#535,3.7);
#535 = AXIS2_PLACEMENT_3D('',#536,#537,#538);
#536 = CARTESIAN_POINT('',(55.5,21.937177826491,23.996306570156));
#537 = DIRECTION('',(0.,-0.866025403784,0.5));
#538 = DIRECTION('',(-4.8E-15,0.5,0.866025403784));
#539 = ORIENTED_EDGE('',*,*,#540,.F.);
#540 = EDGE_CURVE('',#541,#530,#543,.T.);
#541 = VERTEX_POINT('',#542);
#542 = CARTESIAN_POINT('',(59.2,-9.812822173509,-30.99630657015));
#543 = LINE('',#544,#545);
#544 = CARTESIAN_POINT('',(59.2,13.999677826491,10.248153285078));
#545 = VECTOR('',#546,1.);
#546 = DIRECTION('',(1.4E-16,0.5,0.866025403784));
#547 = ORIENTED_EDGE('',*,*,#548,.F.);
#548 = EDGE_CURVE('',#549,#541,#551,.T.);
#549 = VERTEX_POINT('',#550);
#550 = CARTESIAN_POINT('',(55.5,-11.6628221735,-34.20060056415));
#551 = CIRCLE('',#552,3.7);
#552 = AXIS2_PLACEMENT_3D('',#553,#554,#555);
#553 = CARTESIAN_POINT('',(55.5,-9.812822173509,-30.99630657015));
#554 = DIRECTION('',(0.,-0.866025403784,0.5));
#555 = DIRECTION('',(1.,2.401332839873E-15,4.159230484541E-15));
#556 = ORIENTED_EDGE('',*,*,#557,.F.);
#557 = EDGE_CURVE('',#558,#549,#560,.T.);
#558 = VERTEX_POINT('',#559);
#559 = CARTESIAN_POINT('',(-55.5,-11.6628221735,-34.20060056415));
#560 = LINE('',#561,#562);
#561 = CARTESIAN_POINT('',(27.75,-11.6628221735,-34.20060056415));
#562 = VECTOR('',#563,1.);
#563 = DIRECTION('',(1.,-8.E-17,-1.4E-16));
#564 = ORIENTED_EDGE('',*,*,#565,.F.);
#565 = EDGE_CURVE('',#566,#558,#568,.T.);
#566 = VERTEX_POINT('',#567);
#567 = CARTESIAN_POINT('',(-59.2,-9.812822173509,-30.99630657015));
#568 = CIRCLE('',#569,3.7);
#569 = AXIS2_PLACEMENT_3D('',#570,#571,#572);
#570 = CARTESIAN_POINT('',(-55.5,-9.812822173509,-30.99630657015));
#571 = DIRECTION('',(0.,-0.866025403784,0.5));
#572 = DIRECTION('',(2.4E-15,-0.5,-0.866025403784));
#573 = ORIENTED_EDGE('',*,*,#574,.F.);
#574 = EDGE_CURVE('',#575,#566,#577,.T.);
#575 = VERTEX_POINT('',#576);
#576 = CARTESIAN_POINT('',(-59.2,21.937177826491,23.996306570156));
#577 = LINE('',#578,#579);
#578 = CARTESIAN_POINT('',(-59.2,-1.875322173509,-17.24815328507));
#579 = VECTOR('',#580,1.);
#580 = DIRECTION('',(0.,-0.5,-0.866025403784));
#581 = ORIENTED_EDGE('',*,*,#582,.F.);
#582 = EDGE_CURVE('',#583,#575,#585,.T.);
#583 = VERTEX_POINT('',#584);
#584 = CARTESIAN_POINT('',(-55.5,23.787177826491,27.200600564158));
#585 = CIRCLE('',#586,3.7);
#586 = AXIS2_PLACEMENT_3D('',#587,#588,#589);
#587 = CARTESIAN_POINT('',(-55.5,21.937177826491,23.996306570156));
#588 = DIRECTION('',(0.,-0.866025403784,0.5));
#589 = DIRECTION('',(-1.,-1.200666419936E-15,-2.07961524227E-15));
#590 = ORIENTED_EDGE('',*,*,#591,.F.);
#591 = EDGE_CURVE('',#532,#583,#592,.T.);
#592 = LINE('',#593,#594);
#593 = CARTESIAN_POINT('',(-27.75,23.787177826491,27.200600564158));
#594 = VECTOR('',#595,1.);
#595 = DIRECTION('',(-1.,4.E-17,7.E-17));
#596 = PLANE('',#597);
#597 = AXIS2_PLACEMENT_3D('',#598,#599,#600);
#598 = CARTESIAN_POINT('',(0.,6.062177826491,-3.5));
#599 = DIRECTION('',(0.,-0.866025403784,0.5));
#600 = DIRECTION('',(1.,0.,0.));
#601 = ADVANCED_FACE('',(#602,#636),#642,.T.);
#602 = FACE_BOUND('',#603,.T.);
#603 = EDGE_LOOP('',(#604,#614,#622,#630));
#604 = ORIENTED_EDGE('',*,*,#605,.T.);
#605 = EDGE_CURVE('',#606,#608,#610,.T.);
#606 = VERTEX_POINT('',#607);
#607 = CARTESIAN_POINT('',(50.5,17.466192008768,27.732331973941));
#608 = VERTEX_POINT('',#609);
#609 = CARTESIAN_POINT('',(50.5,-15.28380799123,-28.99233197393));
#610 = LINE('',#611,#612);
#611 = CARTESIAN_POINT('',(50.5,17.466192008768,27.732331973941));
#612 = VECTOR('',#613,1.);
#613 = DIRECTION('',(-2.77568135668E-16,-0.5,-0.866025403784));
#614 = ORIENTED_EDGE('',*,*,#615,.T.);
#615 = EDGE_CURVE('',#608,#616,#618,.T.);
#616 = VERTEX_POINT('',#617);
#617 = CARTESIAN_POINT('',(-50.5,-15.28380799123,-28.99233197393));
#618 = LINE('',#619,#620);
#619 = CARTESIAN_POINT('',(50.5,-15.28380799123,-28.99233197393));
#620 = VECTOR('',#621,1.);
#621 = DIRECTION('',(-1.,3.E-14,-1.7E-14));
#622 = ORIENTED_EDGE('',*,*,#623,.T.);
#623 = EDGE_CURVE('',#616,#624,#626,.T.);
#624 = VERTEX_POINT('',#625);
#625 = CARTESIAN_POINT('',(-50.5,17.466192008771,27.732331973939));
#626 = LINE('',#627,#628);
#627 = CARTESIAN_POINT('',(-50.5,-15.28380799123,-28.99233197393));
#628 = VECTOR('',#629,1.);
#629 = DIRECTION('',(2.77568135668E-16,0.5,0.866025403784));
#630 = ORIENTED_EDGE('',*,*,#631,.T.);
#631 = EDGE_CURVE('',#624,#606,#632,.T.);
#632 = LINE('',#633,#634);
#633 = CARTESIAN_POINT('',(-50.5,17.466192008771,27.732331973939));
#634 = VECTOR('',#635,1.);
#635 = DIRECTION('',(1.,-3.E-14,1.7E-14));
#636 = FACE_BOUND('',#637,.T.);
#637 = EDGE_LOOP('',(#638,#639,#640,#641));
#638 = ORIENTED_EDGE('',*,*,#503,.T.);
#639 = ORIENTED_EDGE('',*,*,#455,.T.);
#640 = ORIENTED_EDGE('',*,*,#431,.T.);
#641 = ORIENTED_EDGE('',*,*,#486,.T.);
#642 = PLANE('',#643);
#643 = AXIS2_PLACEMENT_3D('',#644,#645,#646);
#644 = CARTESIAN_POINT('',(4.587E-14,1.091192008767,-0.629999999999));
#645 = DIRECTION('',(3.427E-14,0.866025403784,-0.5));
#646 = DIRECTION('',(0.,0.5,0.866025403784));
#647 = ADVANCED_FACE('',(#648),#674,.T.);
#648 = FACE_BOUND('',#649,.T.);
#649 = EDGE_LOOP('',(#650,#651,#659,#668));
#650 = ORIENTED_EDGE('',*,*,#529,.F.);
#651 = ORIENTED_EDGE('',*,*,#652,.T.);
#652 = EDGE_CURVE('',#530,#653,#655,.T.);
#653 = VERTEX_POINT('',#654);
#654 = CARTESIAN_POINT('',(59.2,23.149613391789,23.296306570156));
#655 = LINE('',#656,#657);
#656 = CARTESIAN_POINT('',(59.2,21.937177826491,23.996306570156));
#657 = VECTOR('',#658,1.);
#658 = DIRECTION('',(0.,0.866025403784,-0.5));
#659 = ORIENTED_EDGE('',*,*,#660,.F.);
#660 = EDGE_CURVE('',#661,#653,#663,.T.);
#661 = VERTEX_POINT('',#662);
#662 = CARTESIAN_POINT('',(55.5,24.999613391789,26.500600564158));
#663 = CIRCLE('',#664,3.7);
#664 = AXIS2_PLACEMENT_3D('',#665,#666,#667);
#665 = CARTESIAN_POINT('',(55.5,23.149613391789,23.296306570156));
#666 = DIRECTION('',(0.,0.866025403784,-0.5));
#667 = DIRECTION('',(-4.8E-15,0.5,0.866025403784));
#668 = ORIENTED_EDGE('',*,*,#669,.F.);
#669 = EDGE_CURVE('',#532,#661,#670,.T.);
#670 = LINE('',#671,#672);
#671 = CARTESIAN_POINT('',(55.5,23.787177826491,27.200600564158));
#672 = VECTOR('',#673,1.);
#673 = DIRECTION('',(0.,0.866025403784,-0.5));
#674 = CYLINDRICAL_SURFACE('',#675,3.7);
#675 = AXIS2_PLACEMENT_3D('',#676,#677,#678);
#676 = CARTESIAN_POINT('',(55.5,21.937177826491,23.996306570156));
#677 = DIRECTION('',(0.,0.866025403784,-0.5));
#678 = DIRECTION('',(-4.8E-15,0.5,0.866025403784));
#679 = ADVANCED_FACE('',(#680),#698,.T.);
#680 = FACE_BOUND('',#681,.T.);
#681 = EDGE_LOOP('',(#682,#683,#691,#697));
#682 = ORIENTED_EDGE('',*,*,#540,.F.);
#683 = ORIENTED_EDGE('',*,*,#684,.T.);
#684 = EDGE_CURVE('',#541,#685,#687,.T.);
#685 = VERTEX_POINT('',#686);
#686 = CARTESIAN_POINT('',(59.2,-8.600386608211,-31.69630657015));
#687 = LINE('',#688,#689);
#688 = CARTESIAN_POINT('',(59.2,-9.812822173509,-30.99630657015));
#689 = VECTOR('',#690,1.);
#690 = DIRECTION('',(0.,0.866025403784,-0.5));
#691 = ORIENTED_EDGE('',*,*,#692,.F.);
#692 = EDGE_CURVE('',#653,#685,#693,.T.);
#693 = LINE('',#694,#695);
#694 = CARTESIAN_POINT('',(59.2,23.149613391789,23.296306570156));
#695 = VECTOR('',#696,1.);
#696 = DIRECTION('',(-1.4E-16,-0.5,-0.866025403784));
#697 = ORIENTED_EDGE('',*,*,#652,.F.);
#698 = PLANE('',#699);
#699 = AXIS2_PLACEMENT_3D('',#700,#701,#702);
#700 = CARTESIAN_POINT('',(59.2,21.937177826491,23.996306570156));
#701 = DIRECTION('',(1.,-7.E-17,-1.2E-16));
#702 = DIRECTION('',(-1.389230484541E-16,-0.5,-0.866025403784));
#703 = ADVANCED_FACE('',(#704),#723,.T.);
#704 = FACE_BOUND('',#705,.T.);
#705 = EDGE_LOOP('',(#706,#707,#715,#722));
#706 = ORIENTED_EDGE('',*,*,#548,.F.);
#707 = ORIENTED_EDGE('',*,*,#708,.T.);
#708 = EDGE_CURVE('',#549,#709,#711,.T.);
#709 = VERTEX_POINT('',#710);
#710 = CARTESIAN_POINT('',(55.5,-10.45038660821,-34.90060056415));
#711 = LINE('',#712,#713);
#712 = CARTESIAN_POINT('',(55.5,-11.6628221735,-34.20060056415));
#713 = VECTOR('',#714,1.);
#714 = DIRECTION('',(0.,0.866025403784,-0.5));
#715 = ORIENTED_EDGE('',*,*,#716,.F.);
#716 = EDGE_CURVE('',#685,#709,#717,.T.);
#717 = CIRCLE('',#718,3.7);
#718 = AXIS2_PLACEMENT_3D('',#719,#720,#721);
#719 = CARTESIAN_POINT('',(55.5,-8.600386608211,-31.69630657015));
#720 = DIRECTION('',(2.4E-15,0.866025403784,-0.5));
#721 = DIRECTION('',(1.,3.224871130606E-16,5.358564064605E-15));
#722 = ORIENTED_EDGE('',*,*,#684,.F.);
#723 = CYLINDRICAL_SURFACE('',#724,3.7);
#724 = AXIS2_PLACEMENT_3D('',#725,#726,#727);
#725 = CARTESIAN_POINT('',(55.5,-9.812822173509,-30.99630657015));
#726 = DIRECTION('',(0.,0.866025403784,-0.5));
#727 = DIRECTION('',(1.,2.401332839873E-15,4.159230484541E-15));
#728 = ADVANCED_FACE('',(#729),#747,.T.);
#729 = FACE_BOUND('',#730,.T.);
#730 = EDGE_LOOP('',(#731,#732,#740,#746));
#731 = ORIENTED_EDGE('',*,*,#557,.F.);
#732 = ORIENTED_EDGE('',*,*,#733,.T.);
#733 = EDGE_CURVE('',#558,#734,#736,.T.);
#734 = VERTEX_POINT('',#735);
#735 = CARTESIAN_POINT('',(-55.5,-10.45038660821,-34.90060056415));
#736 = LINE('',#737,#738);
#737 = CARTESIAN_POINT('',(-55.5,-11.6628221735,-34.20060056415));
#738 = VECTOR('',#739,1.);
#739 = DIRECTION('',(0.,0.866025403784,-0.5));
#740 = ORIENTED_EDGE('',*,*,#741,.F.);
#741 = EDGE_CURVE('',#709,#734,#742,.T.);
#742 = LINE('',#743,#744);
#743 = CARTESIAN_POINT('',(55.5,-10.45038660821,-34.90060056415));
#744 = VECTOR('',#745,1.);
#745 = DIRECTION('',(-1.,6.E-17,1.5E-16));
#746 = ORIENTED_EDGE('',*,*,#708,.F.);
#747 = PLANE('',#748);
#748 = AXIS2_PLACEMENT_3D('',#749,#750,#751);
#749 = CARTESIAN_POINT('',(55.5,-11.6628221735,-34.20060056415));
#750 = DIRECTION('',(-1.6E-16,-0.5,-0.866025403784));
#751 = DIRECTION('',(-1.,6.004809471617E-17,1.50083302492E-16));
#752 = ADVANCED_FACE('',(#753),#772,.T.);
#753 = FACE_BOUND('',#754,.T.);
#754 = EDGE_LOOP('',(#755,#756,#764,#771));
#755 = ORIENTED_EDGE('',*,*,#565,.F.);
#756 = ORIENTED_EDGE('',*,*,#757,.T.);
#757 = EDGE_CURVE('',#566,#758,#760,.T.);
#758 = VERTEX_POINT('',#759);
#759 = CARTESIAN_POINT('',(-59.2,-8.600386608211,-31.69630657015));
#760 = LINE('',#761,#762);
#761 = CARTESIAN_POINT('',(-59.2,-9.812822173509,-30.99630657015));
#762 = VECTOR('',#763,1.);
#763 = DIRECTION('',(0.,0.866025403784,-0.5));
#764 = ORIENTED_EDGE('',*,*,#765,.F.);
#765 = EDGE_CURVE('',#734,#758,#766,.T.);
#766 = CIRCLE('',#767,3.7);
#767 = AXIS2_PLACEMENT_3D('',#768,#769,#770);
#768 = CARTESIAN_POINT('',(-55.5,-8.600386608211,-31.69630657015));
#769 = DIRECTION('',(0.,0.866025403784,-0.5));
#770 = DIRECTION('',(2.4E-15,-0.5,-0.866025403784));
#771 = ORIENTED_EDGE('',*,*,#733,.F.);
#772 = CYLINDRICAL_SURFACE('',#773,3.7);
#773 = AXIS2_PLACEMENT_3D('',#774,#775,#776);
#774 = CARTESIAN_POINT('',(-55.5,-9.812822173509,-30.99630657015));
#775 = DIRECTION('',(0.,0.866025403784,-0.5));
#776 = DIRECTION('',(2.4E-15,-0.5,-0.866025403784));
#777 = ADVANCED_FACE('',(#778),#796,.T.);
#778 = FACE_BOUND('',#779,.T.);
#779 = EDGE_LOOP('',(#780,#781,#789,#795));
#780 = ORIENTED_EDGE('',*,*,#574,.F.);
#781 = ORIENTED_EDGE('',*,*,#782,.T.);
#782 = EDGE_CURVE('',#575,#783,#785,.T.);
#783 = VERTEX_POINT('',#784);
#784 = CARTESIAN_POINT('',(-59.2,23.149613391789,23.296306570156));
#785 = LINE('',#786,#787);
#786 = CARTESIAN_POINT('',(-59.2,21.937177826491,23.996306570156));
#787 = VECTOR('',#788,1.);
#788 = DIRECTION('',(0.,0.866025403784,-0.5));
#789 = ORIENTED_EDGE('',*,*,#790,.F.);
#790 = EDGE_CURVE('',#758,#783,#791,.T.);
#791 = LINE('',#792,#793);
#792 = CARTESIAN_POINT('',(-59.2,-8.600386608211,-31.69630657015));
#793 = VECTOR('',#794,1.);
#794 = DIRECTION('',(0.,0.5,0.866025403784));
#795 = ORIENTED_EDGE('',*,*,#757,.F.);
#796 = PLANE('',#797);
#797 = AXIS2_PLACEMENT_3D('',#798,#799,#800);
#798 = CARTESIAN_POINT('',(-59.2,-9.812822173509,-30.99630657015));
#799 = DIRECTION('',(-1.,0.,0.));
#800 = DIRECTION('',(0.,0.5,0.866025403784));
#801 = ADVANCED_FACE('',(#802),#821,.T.);
#802 = FACE_BOUND('',#803,.T.);
#803 = EDGE_LOOP('',(#804,#805,#813,#820));
#804 = ORIENTED_EDGE('',*,*,#582,.F.);
#805 = ORIENTED_EDGE('',*,*,#806,.T.);
#806 = EDGE_CURVE('',#583,#807,#809,.T.);
#807 = VERTEX_POINT('',#808);
#808 = CARTESIAN_POINT('',(-55.5,24.999613391789,26.500600564158));
#809 = LINE('',#810,#811);
#810 = CARTESIAN_POINT('',(-55.5,23.787177826491,27.200600564158));
#811 = VECTOR('',#812,1.);
#812 = DIRECTION('',(0.,0.866025403784,-0.5));
#813 = ORIENTED_EDGE('',*,*,#814,.F.);
#814 = EDGE_CURVE('',#783,#807,#815,.T.);
#815 = CIRCLE('',#816,3.7);
#816 = AXIS2_PLACEMENT_3D('',#817,#818,#819);
#817 = CARTESIAN_POINT('',(-55.5,23.149613391789,23.296306570156));
#818 = DIRECTION('',(1.2E-15,0.866025403784,-0.5));
#819 = DIRECTION('',(-1.,-1.612435565303E-16,-2.679282032302E-15));
#820 = ORIENTED_EDGE('',*,*,#782,.F.);
#821 = CYLINDRICAL_SURFACE('',#822,3.7);
#822 = AXIS2_PLACEMENT_3D('',#823,#824,#825);
#823 = CARTESIAN_POINT('',(-55.5,21.937177826491,23.996306570156));
#824 = DIRECTION('',(0.,0.866025403784,-0.5));
#825 = DIRECTION('',(-1.,-1.200666419936E-15,-2.07961524227E-15));
#826 = ADVANCED_FACE('',(#827),#838,.T.);
#827 = FACE_BOUND('',#828,.T.);
#828 = EDGE_LOOP('',(#829,#830,#831,#837));
#829 = ORIENTED_EDGE('',*,*,#591,.F.);
#830 = ORIENTED_EDGE('',*,*,#669,.T.);
#831 = ORIENTED_EDGE('',*,*,#832,.F.);
#832 = EDGE_CURVE('',#807,#661,#833,.T.);
#833 = LINE('',#834,#835);
#834 = CARTESIAN_POINT('',(-55.5,24.999613391789,26.500600564158));
#835 = VECTOR('',#836,1.);
#836 = DIRECTION('',(1.,-4.E-17,-7.E-17));
#837 = ORIENTED_EDGE('',*,*,#806,.F.);
#838 = PLANE('',#839);
#839 = AXIS2_PLACEMENT_3D('',#840,#841,#842);
#840 = CARTESIAN_POINT('',(-55.5,23.787177826491,27.200600564158));
#841 = DIRECTION('',(8.E-17,0.5,0.866025403784));
#842 = DIRECTION('',(1.,-3.968911086754E-17,-6.946152422707E-17));
#843 = ADVANCED_FACE('',(#844),#901,.F.);
#844 = FACE_BOUND('',#845,.F.);
#845 = EDGE_LOOP('',(#846,#856,#862,#863,#871,#879,#887,#895));
#846 = ORIENTED_EDGE('',*,*,#847,.F.);
#847 = EDGE_CURVE('',#848,#850,#852,.T.);
#848 = VERTEX_POINT('',#849);
#849 = CARTESIAN_POINT('',(50.5,23.649613391789,24.16233197394));
#850 = VERTEX_POINT('',#851);
#851 = CARTESIAN_POINT('',(50.500000000052,21.649622245653,
    20.698245694146));
#852 = LINE('',#853,#854);
#853 = CARTESIAN_POINT('',(50.5,23.649613391789,24.16233197394));
#854 = VECTOR('',#855,1.);
#855 = DIRECTION('',(-2.77568135668E-16,-0.5,-0.866025403784));
#856 = ORIENTED_EDGE('',*,*,#857,.T.);
#857 = EDGE_CURVE('',#848,#606,#858,.T.);
#858 = LINE('',#859,#860);
#859 = CARTESIAN_POINT('',(50.5,23.649613391789,24.16233197394));
#860 = VECTOR('',#861,1.);
#861 = DIRECTION('',(-3.428E-14,-0.866025403784,0.5));
#862 = ORIENTED_EDGE('',*,*,#605,.T.);
#863 = ORIENTED_EDGE('',*,*,#864,.F.);
#864 = EDGE_CURVE('',#865,#608,#867,.T.);
#865 = VERTEX_POINT('',#866);
#866 = CARTESIAN_POINT('',(50.5,-9.100386608217,-32.56233197393));
#867 = LINE('',#868,#869);
#868 = CARTESIAN_POINT('',(50.5,-9.100386608217,-32.56233197393));
#869 = VECTOR('',#870,1.);
#870 = DIRECTION('',(-3.428E-14,-0.866025403784,0.5));
#871 = ORIENTED_EDGE('',*,*,#872,.F.);
#872 = EDGE_CURVE('',#873,#865,#875,.T.);
#873 = VERTEX_POINT('',#874);
#874 = CARTESIAN_POINT('',(50.500000000028,-7.100379834391,
    -29.09821862618));
#875 = LINE('',#876,#877);
#876 = CARTESIAN_POINT('',(50.5,23.649613391789,24.16233197394));
#877 = VECTOR('',#878,1.);
#878 = DIRECTION('',(-2.77568135668E-16,-0.5,-0.866025403784));
#879 = ORIENTED_EDGE('',*,*,#880,.T.);
#880 = EDGE_CURVE('',#873,#881,#883,.T.);
#881 = VERTEX_POINT('',#882);
#882 = CARTESIAN_POINT('',(50.500000000028,-8.83243064196,
    -28.09821862618));
#883 = LINE('',#884,#885);
#884 = CARTESIAN_POINT('',(50.500000000028,-7.100379834391,
    -29.09821862618));
#885 = VECTOR('',#886,1.);
#886 = DIRECTION('',(-3.427E-14,-0.866025403784,0.5));
#887 = ORIENTED_EDGE('',*,*,#888,.T.);
#888 = EDGE_CURVE('',#881,#889,#891,.T.);
#889 = VERTEX_POINT('',#890);
#890 = CARTESIAN_POINT('',(50.500000000052,19.917571438084,
    21.698245694146));
#891 = LINE('',#892,#893);
#892 = CARTESIAN_POINT('',(50.500000000046,12.73006701114,9.249122847055
    ));
#893 = VECTOR('',#894,1.);
#894 = DIRECTION('',(4.1187E-13,0.5,0.866025403784));
#895 = ORIENTED_EDGE('',*,*,#896,.F.);
#896 = EDGE_CURVE('',#850,#889,#897,.T.);
#897 = LINE('',#898,#899);
#898 = CARTESIAN_POINT('',(50.500000000052,21.649622245653,
    20.698245694146));
#899 = VECTOR('',#900,1.);
#900 = DIRECTION('',(-3.427E-14,-0.866025403784,0.5));
#901 = PLANE('',#902);
#902 = AXIS2_PLACEMENT_3D('',#903,#904,#905);
#903 = CARTESIAN_POINT('',(50.5,23.649613391789,24.16233197394));
#904 = DIRECTION('',(1.,-2.969E-14,1.714E-14));
#905 = DIRECTION('',(-1.324579138149E-18,-0.5,-0.866025403784));
#906 = ADVANCED_FACE('',(#907),#925,.F.);
#907 = FACE_BOUND('',#908,.F.);
#908 = EDGE_LOOP('',(#909,#917,#923,#924));
#909 = ORIENTED_EDGE('',*,*,#910,.F.);
#910 = EDGE_CURVE('',#911,#848,#913,.T.);
#911 = VERTEX_POINT('',#912);
#912 = CARTESIAN_POINT('',(-50.49999999999,23.649613391792,
    24.162331973939));
#913 = LINE('',#914,#915);
#914 = CARTESIAN_POINT('',(-50.49999999999,23.649613391792,
    24.162331973939));
#915 = VECTOR('',#916,1.);
#916 = DIRECTION('',(1.,-3.E-14,1.7E-14));
#917 = ORIENTED_EDGE('',*,*,#918,.T.);
#918 = EDGE_CURVE('',#911,#624,#919,.T.);
#919 = LINE('',#920,#921);
#920 = CARTESIAN_POINT('',(-50.49999999999,23.649613391792,
    24.162331973939));
#921 = VECTOR('',#922,1.);
#922 = DIRECTION('',(-3.428E-14,-0.866025403784,0.5));
#923 = ORIENTED_EDGE('',*,*,#631,.T.);
#924 = ORIENTED_EDGE('',*,*,#857,.F.);
#925 = PLANE('',#926);
#926 = AXIS2_PLACEMENT_3D('',#927,#928,#929);
#927 = CARTESIAN_POINT('',(-50.49999999999,23.649613391792,
    24.162331973939));
#928 = DIRECTION('',(0.,0.5,0.866025403784));
#929 = DIRECTION('',(1.,-2.968933771043E-14,1.714114711918E-14));
#930 = ADVANCED_FACE('',(#931),#949,.F.);
#931 = FACE_BOUND('',#932,.F.);
#932 = EDGE_LOOP('',(#933,#941,#942,#943));
#933 = ORIENTED_EDGE('',*,*,#934,.F.);
#934 = EDGE_CURVE('',#865,#935,#937,.T.);
#935 = VERTEX_POINT('',#936);
#936 = CARTESIAN_POINT('',(-50.49999999999,-9.100386608214,
    -32.56233197394));
#937 = LINE('',#938,#939);
#938 = CARTESIAN_POINT('',(50.5,-9.100386608217,-32.56233197393));
#939 = VECTOR('',#940,1.);
#940 = DIRECTION('',(-1.,3.E-14,-1.7E-14));
#941 = ORIENTED_EDGE('',*,*,#864,.T.);
#942 = ORIENTED_EDGE('',*,*,#615,.T.);
#943 = ORIENTED_EDGE('',*,*,#944,.F.);
#944 = EDGE_CURVE('',#935,#616,#945,.T.);
#945 = LINE('',#946,#947);
#946 = CARTESIAN_POINT('',(-50.49999999999,-9.100386608214,
    -32.56233197394));
#947 = VECTOR('',#948,1.);
#948 = DIRECTION('',(-3.428E-14,-0.866025403784,0.5));
#949 = PLANE('',#950);
#950 = AXIS2_PLACEMENT_3D('',#951,#952,#953);
#951 = CARTESIAN_POINT('',(50.5,-9.100386608217,-32.56233197393));
#952 = DIRECTION('',(-0.,-0.5,-0.866025403784));
#953 = DIRECTION('',(-1.,2.968933771043E-14,-1.714114711918E-14));
#954 = ADVANCED_FACE('',(#955),#998,.F.);
#955 = FACE_BOUND('',#956,.F.);
#956 = EDGE_LOOP('',(#957,#965,#966,#967,#968,#976,#984,#992));
#957 = ORIENTED_EDGE('',*,*,#958,.F.);
#958 = EDGE_CURVE('',#935,#959,#961,.T.);
#959 = VERTEX_POINT('',#960);
#960 = CARTESIAN_POINT('',(-50.50000000003,-7.100379562216,
    -29.09821815477));
#961 = LINE('',#962,#963);
#962 = CARTESIAN_POINT('',(-50.49999999999,-9.100386608214,
    -32.56233197394));
#963 = VECTOR('',#964,1.);
#964 = DIRECTION('',(2.77568135668E-16,0.5,0.866025403784));
#965 = ORIENTED_EDGE('',*,*,#944,.T.);
#966 = ORIENTED_EDGE('',*,*,#623,.T.);
#967 = ORIENTED_EDGE('',*,*,#918,.F.);
#968 = ORIENTED_EDGE('',*,*,#969,.F.);
#969 = EDGE_CURVE('',#970,#911,#972,.T.);
#970 = VERTEX_POINT('',#971);
#971 = CARTESIAN_POINT('',(-50.49999999999,21.649613391791,20.6982303588
    ));
#972 = LINE('',#973,#974);
#973 = CARTESIAN_POINT('',(-50.49999999999,-9.100386608214,
    -32.56233197394));
#974 = VECTOR('',#975,1.);
#975 = DIRECTION('',(2.77568135668E-16,0.5,0.866025403784));
#976 = ORIENTED_EDGE('',*,*,#977,.T.);
#977 = EDGE_CURVE('',#970,#978,#980,.T.);
#978 = VERTEX_POINT('',#979);
#979 = CARTESIAN_POINT('',(-50.5,19.917562584222,21.6982303588));
#980 = LINE('',#981,#982);
#981 = CARTESIAN_POINT('',(-50.49999999999,21.649613391791,20.6982303588
    ));
#982 = VECTOR('',#983,1.);
#983 = DIRECTION('',(-3.427E-14,-0.866025403784,0.5));
#984 = ORIENTED_EDGE('',*,*,#985,.F.);
#985 = EDGE_CURVE('',#986,#978,#988,.T.);
#986 = VERTEX_POINT('',#987);
#987 = CARTESIAN_POINT('',(-50.50000000003,-8.832430369785,
    -28.09821815477));
#988 = LINE('',#989,#990);
#989 = CARTESIAN_POINT('',(-50.5,12.730062584221,9.249115179399));
#990 = VECTOR('',#991,1.);
#991 = DIRECTION('',(5.4075E-13,0.5,0.866025403784));
#992 = ORIENTED_EDGE('',*,*,#993,.F.);
#993 = EDGE_CURVE('',#959,#986,#994,.T.);
#994 = LINE('',#995,#996);
#995 = CARTESIAN_POINT('',(-50.50000000003,-7.100379562216,
    -29.09821815477));
#996 = VECTOR('',#997,1.);
#997 = DIRECTION('',(-3.427E-14,-0.866025403784,0.5));
#998 = PLANE('',#999);
#999 = AXIS2_PLACEMENT_3D('',#1000,#1001,#1002);
#1000 = CARTESIAN_POINT('',(-50.49999999999,-9.100386608214,
    -32.56233197394));
#1001 = DIRECTION('',(-1.,2.969E-14,-1.714E-14));
#1002 = DIRECTION('',(1.324579138149E-18,0.5,0.866025403784));
#1003 = ADVANCED_FACE('',(#1004,#1014,#1025,#1036,#1047,#1135),#1146,.T.
  );
#1004 = FACE_BOUND('',#1005,.T.);
#1005 = EDGE_LOOP('',(#1006,#1007,#1008,#1009,#1010,#1011,#1012,#1013));
#1006 = ORIENTED_EDGE('',*,*,#832,.T.);
#1007 = ORIENTED_EDGE('',*,*,#660,.T.);
#1008 = ORIENTED_EDGE('',*,*,#692,.T.);
#1009 = ORIENTED_EDGE('',*,*,#716,.T.);
#1010 = ORIENTED_EDGE('',*,*,#741,.T.);
#1011 = ORIENTED_EDGE('',*,*,#765,.T.);
#1012 = ORIENTED_EDGE('',*,*,#790,.T.);
#1013 = ORIENTED_EDGE('',*,*,#814,.T.);
#1014 = FACE_BOUND('',#1015,.T.);
#1015 = EDGE_LOOP('',(#1016));
#1016 = ORIENTED_EDGE('',*,*,#1017,.F.);
#1017 = EDGE_CURVE('',#1018,#1018,#1020,.T.);
#1018 = VERTEX_POINT('',#1019);
#1019 = CARTESIAN_POINT('',(-55.5,-7.100386608214,-29.0982303588));
#1020 = CIRCLE('',#1021,2.);
#1021 = AXIS2_PLACEMENT_3D('',#1022,#1023,#1024);
#1022 = CARTESIAN_POINT('',(-53.5,-7.100386608214,-29.0982303588));
#1023 = DIRECTION('',(3.448076211353E-14,0.866025403784,-0.5));
#1024 = DIRECTION('',(-1.,3.E-14,-1.7E-14));
#1025 = FACE_BOUND('',#1026,.T.);
#1026 = EDGE_LOOP('',(#1027));
#1027 = ORIENTED_EDGE('',*,*,#1028,.F.);
#1028 = EDGE_CURVE('',#1029,#1029,#1031,.T.);
#1029 = VERTEX_POINT('',#1030);
#1030 = CARTESIAN_POINT('',(-55.5,21.649613391791,20.6982303588));
#1031 = CIRCLE('',#1032,2.);
#1032 = AXIS2_PLACEMENT_3D('',#1033,#1034,#1035);
#1033 = CARTESIAN_POINT('',(-53.5,21.649613391791,20.6982303588));
#1034 = DIRECTION('',(3.448076211353E-14,0.866025403784,-0.5));
#1035 = DIRECTION('',(-1.,3.E-14,-1.7E-14));
#1036 = FACE_BOUND('',#1037,.T.);
#1037 = EDGE_LOOP('',(#1038));
#1038 = ORIENTED_EDGE('',*,*,#1039,.F.);
#1039 = EDGE_CURVE('',#1040,#1040,#1042,.T.);
#1040 = VERTEX_POINT('',#1041);
#1041 = CARTESIAN_POINT('',(51.5,-7.100386608217,-29.0982303588));
#1042 = CIRCLE('',#1043,2.);
#1043 = AXIS2_PLACEMENT_3D('',#1044,#1045,#1046);
#1044 = CARTESIAN_POINT('',(53.5,-7.100386608217,-29.0982303588));
#1045 = DIRECTION('',(3.448076211353E-14,0.866025403784,-0.5));
#1046 = DIRECTION('',(-1.,3.E-14,-1.7E-14));
#1047 = FACE_BOUND('',#1048,.T.);
#1048 = EDGE_LOOP('',(#1049,#1050,#1051,#1052,#1061,#1069,#1077,#1085,
    #1092,#1093,#1094,#1095,#1104,#1112,#1120,#1128));
#1049 = ORIENTED_EDGE('',*,*,#847,.F.);
#1050 = ORIENTED_EDGE('',*,*,#910,.F.);
#1051 = ORIENTED_EDGE('',*,*,#969,.F.);
#1052 = ORIENTED_EDGE('',*,*,#1053,.T.);
#1053 = EDGE_CURVE('',#970,#1054,#1056,.T.);
#1054 = VERTEX_POINT('',#1055);
#1055 = CARTESIAN_POINT('',(-53.5,20.14961339179,18.100154147446));
#1056 = CIRCLE('',#1057,3.000000000001);
#1057 = AXIS2_PLACEMENT_3D('',#1058,#1059,#1060);
#1058 = CARTESIAN_POINT('',(-53.5,21.649613391791,20.6982303588));
#1059 = DIRECTION('',(3.448076211353E-14,0.866025403784,-0.5));
#1060 = DIRECTION('',(-1.,3.E-14,-1.7E-14));
#1061 = ORIENTED_EDGE('',*,*,#1062,.T.);
#1062 = EDGE_CURVE('',#1054,#1063,#1065,.T.);
#1063 = VERTEX_POINT('',#1064);
#1064 = CARTESIAN_POINT('',(-58.2,20.149613391791,18.100154147446));
#1065 = LINE('',#1066,#1067);
#1066 = CARTESIAN_POINT('',(-53.5,20.14961339179,18.100154147446));
#1067 = VECTOR('',#1068,1.);
#1068 = DIRECTION('',(-1.,3.E-14,-1.7E-14));
#1069 = ORIENTED_EDGE('',*,*,#1070,.T.);
#1070 = EDGE_CURVE('',#1063,#1071,#1073,.T.);
#1071 = VERTEX_POINT('',#1072);
#1072 = CARTESIAN_POINT('',(-58.2,-5.600386608212,-26.50015414744));
#1073 = LINE('',#1074,#1075);
#1074 = CARTESIAN_POINT('',(-58.2,20.149613391791,18.100154147446));
#1075 = VECTOR('',#1076,1.);
#1076 = DIRECTION('',(-0.,-0.5,-0.866025403784));
#1077 = ORIENTED_EDGE('',*,*,#1078,.F.);
#1078 = EDGE_CURVE('',#1079,#1071,#1081,.T.);
#1079 = VERTEX_POINT('',#1080);
#1080 = CARTESIAN_POINT('',(-53.5,-5.600386608213,-26.50015414744));
#1081 = LINE('',#1082,#1083);
#1082 = CARTESIAN_POINT('',(-53.5,-5.600386608213,-26.50015414744));
#1083 = VECTOR('',#1084,1.);
#1084 = DIRECTION('',(-1.,3.E-14,-1.7E-14));
#1085 = ORIENTED_EDGE('',*,*,#1086,.T.);
#1086 = EDGE_CURVE('',#1079,#959,#1087,.T.);
#1087 = CIRCLE('',#1088,3.000000000003);
#1088 = AXIS2_PLACEMENT_3D('',#1089,#1090,#1091);
#1089 = CARTESIAN_POINT('',(-53.5,-7.100386608214,-29.0982303588));
#1090 = DIRECTION('',(3.448076211353E-14,0.866025403784,-0.5));
#1091 = DIRECTION('',(-1.,3.E-14,-1.7E-14));
#1092 = ORIENTED_EDGE('',*,*,#958,.F.);
#1093 = ORIENTED_EDGE('',*,*,#934,.F.);
#1094 = ORIENTED_EDGE('',*,*,#872,.F.);
#1095 = ORIENTED_EDGE('',*,*,#1096,.T.);
#1096 = EDGE_CURVE('',#873,#1097,#1099,.T.);
#1097 = VERTEX_POINT('',#1098);
#1098 = CARTESIAN_POINT('',(53.499988986058,-5.600386608221,
    -26.50015414745));
#1099 = CIRCLE('',#1100,3.000000000003);
#1100 = AXIS2_PLACEMENT_3D('',#1101,#1102,#1103);
#1101 = CARTESIAN_POINT('',(53.5,-7.100386608217,-29.0982303588));
#1102 = DIRECTION('',(3.448076211353E-14,0.866025403784,-0.5));
#1103 = DIRECTION('',(-1.,3.E-14,-1.7E-14));
#1104 = ORIENTED_EDGE('',*,*,#1105,.T.);
#1105 = EDGE_CURVE('',#1097,#1106,#1108,.T.);
#1106 = VERTEX_POINT('',#1107);
#1107 = CARTESIAN_POINT('',(58.199988986058,-5.600386608216,
    -26.50015414744));
#1108 = LINE('',#1109,#1110);
#1109 = CARTESIAN_POINT('',(53.499988986058,-5.600386608216,
    -26.50015414744));
#1110 = VECTOR('',#1111,1.);
#1111 = DIRECTION('',(1.,-3.E-14,1.7E-14));
#1112 = ORIENTED_EDGE('',*,*,#1113,.F.);
#1113 = EDGE_CURVE('',#1114,#1106,#1116,.T.);
#1114 = VERTEX_POINT('',#1115);
#1115 = CARTESIAN_POINT('',(58.199988986058,20.149613391787,
    18.100154147448));
#1116 = LINE('',#1117,#1118);
#1117 = CARTESIAN_POINT('',(58.199988986058,20.149613391787,
    18.100154147448));
#1118 = VECTOR('',#1119,1.);
#1119 = DIRECTION('',(-2.77568135668E-16,-0.5,-0.866025403784));
#1120 = ORIENTED_EDGE('',*,*,#1121,.F.);
#1121 = EDGE_CURVE('',#1122,#1114,#1124,.T.);
#1122 = VERTEX_POINT('',#1123);
#1123 = CARTESIAN_POINT('',(53.499988986058,20.149613391792,
    18.100154147457));
#1124 = LINE('',#1125,#1126);
#1125 = CARTESIAN_POINT('',(53.499988986058,20.149613391787,
    18.100154147448));
#1126 = VECTOR('',#1127,1.);
#1127 = DIRECTION('',(1.,-3.E-14,1.7E-14));
#1128 = ORIENTED_EDGE('',*,*,#1129,.T.);
#1129 = EDGE_CURVE('',#1122,#850,#1130,.T.);
#1130 = CIRCLE('',#1131,3.000000000001);
#1131 = AXIS2_PLACEMENT_3D('',#1132,#1133,#1134);
#1132 = CARTESIAN_POINT('',(53.5,21.649613391788,20.698230358801));
#1133 = DIRECTION('',(3.448076211353E-14,0.866025403784,-0.5));
#1134 = DIRECTION('',(-1.,3.E-14,-1.7E-14));
#1135 = FACE_BOUND('',#1136,.T.);
#1136 = EDGE_LOOP('',(#1137));
#1137 = ORIENTED_EDGE('',*,*,#1138,.F.);
#1138 = EDGE_CURVE('',#1139,#1139,#1141,.T.);
#1139 = VERTEX_POINT('',#1140);
#1140 = CARTESIAN_POINT('',(51.5,21.649613391788,20.698230358802));
#1141 = CIRCLE('',#1142,2.);
#1142 = AXIS2_PLACEMENT_3D('',#1143,#1144,#1145);
#1143 = CARTESIAN_POINT('',(53.5,21.649613391788,20.698230358802));
#1144 = DIRECTION('',(3.448076211353E-14,0.866025403784,-0.5));
#1145 = DIRECTION('',(-1.,3.E-14,-1.7E-14));
#1146 = PLANE('',#1147);
#1147 = AXIS2_PLACEMENT_3D('',#1148,#1149,#1150);
#1148 = CARTESIAN_POINT('',(1.38E-15,7.274613391789,-4.199999999996));
#1149 = DIRECTION('',(3.427E-14,0.866025403784,-0.5));
#1150 = DIRECTION('',(0.,0.5,0.866025403784));
#1151 = ADVANCED_FACE('',(#1152),#1171,.T.);
#1152 = FACE_BOUND('',#1153,.T.);
#1153 = EDGE_LOOP('',(#1154,#1155,#1163,#1170));
#1154 = ORIENTED_EDGE('',*,*,#1129,.F.);
#1155 = ORIENTED_EDGE('',*,*,#1156,.T.);
#1156 = EDGE_CURVE('',#1122,#1157,#1159,.T.);
#1157 = VERTEX_POINT('',#1158);
#1158 = CARTESIAN_POINT('',(53.499988986057,18.417562584223,
    19.100154147457));
#1159 = LINE('',#1160,#1161);
#1160 = CARTESIAN_POINT('',(53.499988986058,20.149613391792,
    18.100154147457));
#1161 = VECTOR('',#1162,1.);
#1162 = DIRECTION('',(-3.427E-14,-0.866025403784,0.5));
#1163 = ORIENTED_EDGE('',*,*,#1164,.T.);
#1164 = EDGE_CURVE('',#1157,#889,#1165,.T.);
#1165 = CIRCLE('',#1166,3.000000000001);
#1166 = AXIS2_PLACEMENT_3D('',#1167,#1168,#1169);
#1167 = CARTESIAN_POINT('',(53.5,19.917562584219,21.698230358802));
#1168 = DIRECTION('',(3.427E-14,0.866025403784,-0.5));
#1169 = DIRECTION('',(-1.,2.967685287726E-14,-1.713818300784E-14));
#1170 = ORIENTED_EDGE('',*,*,#896,.F.);
#1171 = CYLINDRICAL_SURFACE('',#1172,3.000000000001);
#1172 = AXIS2_PLACEMENT_3D('',#1173,#1174,#1175);
#1173 = CARTESIAN_POINT('',(53.5,21.649613391788,20.698230358801));
#1174 = DIRECTION('',(3.427E-14,0.866025403784,-0.5));
#1175 = DIRECTION('',(-1.,2.967685287726E-14,-1.713818300784E-14));
#1176 = ADVANCED_FACE('',(#1177),#1212,.T.);
#1177 = FACE_BOUND('',#1178,.T.);
#1178 = EDGE_LOOP('',(#1179,#1180,#1188,#1196,#1204,#1211));
#1179 = ORIENTED_EDGE('',*,*,#1164,.F.);
#1180 = ORIENTED_EDGE('',*,*,#1181,.F.);
#1181 = EDGE_CURVE('',#1182,#1157,#1184,.T.);
#1182 = VERTEX_POINT('',#1183);
#1183 = CARTESIAN_POINT('',(58.199988986057,18.417562584218,
    19.100154147448));
#1184 = LINE('',#1185,#1186);
#1185 = CARTESIAN_POINT('',(-0.425005506971,18.41756258422,
    19.100154147447));
#1186 = VECTOR('',#1187,1.);
#1187 = DIRECTION('',(-1.,2.965E-14,-1.712E-14));
#1188 = ORIENTED_EDGE('',*,*,#1189,.F.);
#1189 = EDGE_CURVE('',#1190,#1182,#1192,.T.);
#1190 = VERTEX_POINT('',#1191);
#1191 = CARTESIAN_POINT('',(58.199988986057,-7.332437415785,
    -25.50015414744));
#1192 = LINE('',#1193,#1194);
#1193 = CARTESIAN_POINT('',(58.199988986057,11.980062584218,
    7.950077073725));
#1194 = VECTOR('',#1195,1.);
#1195 = DIRECTION('',(0.,0.5,0.866025403784));
#1196 = ORIENTED_EDGE('',*,*,#1197,.T.);
#1197 = EDGE_CURVE('',#1190,#1198,#1200,.T.);
#1198 = VERTEX_POINT('',#1199);
#1199 = CARTESIAN_POINT('',(53.499988986057,-7.33243741579,
    -25.50015414745));
#1200 = LINE('',#1201,#1202);
#1201 = CARTESIAN_POINT('',(-0.425005506971,-7.332437415783,
    -25.50015414744));
#1202 = VECTOR('',#1203,1.);
#1203 = DIRECTION('',(-1.,2.965E-14,-1.712E-14));
#1204 = ORIENTED_EDGE('',*,*,#1205,.F.);
#1205 = EDGE_CURVE('',#881,#1198,#1206,.T.);
#1206 = CIRCLE('',#1207,3.000000000003);
#1207 = AXIS2_PLACEMENT_3D('',#1208,#1209,#1210);
#1208 = CARTESIAN_POINT('',(53.5,-8.832437415786,-28.0982303588));
#1209 = DIRECTION('',(3.427E-14,0.866025403784,-0.5));
#1210 = DIRECTION('',(-1.,2.967685287726E-14,-1.713818300784E-14));
#1211 = ORIENTED_EDGE('',*,*,#888,.T.);
#1212 = PLANE('',#1213);
#1213 = AXIS2_PLACEMENT_3D('',#1214,#1215,#1216);
#1214 = CARTESIAN_POINT('',(-54.35,5.54256258422,-3.200000000001));
#1215 = DIRECTION('',(3.424E-14,0.866025403784,-0.5));
#1216 = DIRECTION('',(0.,0.5,0.866025403784));
#1217 = ADVANCED_FACE('',(#1218),#1229,.T.);
#1218 = FACE_BOUND('',#1219,.T.);
#1219 = EDGE_LOOP('',(#1220,#1221,#1222,#1223));
#1220 = ORIENTED_EDGE('',*,*,#1096,.F.);
#1221 = ORIENTED_EDGE('',*,*,#880,.T.);
#1222 = ORIENTED_EDGE('',*,*,#1205,.T.);
#1223 = ORIENTED_EDGE('',*,*,#1224,.F.);
#1224 = EDGE_CURVE('',#1097,#1198,#1225,.T.);
#1225 = LINE('',#1226,#1227);
#1226 = CARTESIAN_POINT('',(53.499988986058,-5.600386608221,
    -26.50015414745));
#1227 = VECTOR('',#1228,1.);
#1228 = DIRECTION('',(-3.427E-14,-0.866025403784,0.5));
#1229 = CYLINDRICAL_SURFACE('',#1230,3.000000000003);
#1230 = AXIS2_PLACEMENT_3D('',#1231,#1232,#1233);
#1231 = CARTESIAN_POINT('',(53.5,-7.100386608217,-29.0982303588));
#1232 = DIRECTION('',(3.427E-14,0.866025403784,-0.5));
#1233 = DIRECTION('',(-1.,2.967685287726E-14,-1.713818300784E-14));
#1234 = ADVANCED_FACE('',(#1235),#1254,.T.);
#1235 = FACE_BOUND('',#1236,.T.);
#1236 = EDGE_LOOP('',(#1237,#1238,#1246,#1253));
#1237 = ORIENTED_EDGE('',*,*,#1086,.F.);
#1238 = ORIENTED_EDGE('',*,*,#1239,.T.);
#1239 = EDGE_CURVE('',#1079,#1240,#1242,.T.);
#1240 = VERTEX_POINT('',#1241);
#1241 = CARTESIAN_POINT('',(-53.5,-7.332437415781,-25.50015414744));
#1242 = LINE('',#1243,#1244);
#1243 = CARTESIAN_POINT('',(-53.5,-5.600386608213,-26.50015414744));
#1244 = VECTOR('',#1245,1.);
#1245 = DIRECTION('',(-3.427E-14,-0.866025403784,0.5));
#1246 = ORIENTED_EDGE('',*,*,#1247,.T.);
#1247 = EDGE_CURVE('',#1240,#986,#1248,.T.);
#1248 = CIRCLE('',#1249,3.000000000003);
#1249 = AXIS2_PLACEMENT_3D('',#1250,#1251,#1252);
#1250 = CARTESIAN_POINT('',(-53.5,-8.832437415783,-28.0982303588));
#1251 = DIRECTION('',(3.427E-14,0.866025403784,-0.5));
#1252 = DIRECTION('',(-1.,2.967685287726E-14,-1.713818300784E-14));
#1253 = ORIENTED_EDGE('',*,*,#993,.F.);
#1254 = CYLINDRICAL_SURFACE('',#1255,3.000000000003);
#1255 = AXIS2_PLACEMENT_3D('',#1256,#1257,#1258);
#1256 = CARTESIAN_POINT('',(-53.5,-7.100386608214,-29.0982303588));
#1257 = DIRECTION('',(3.427E-14,0.866025403784,-0.5));
#1258 = DIRECTION('',(-1.,2.967685287726E-14,-1.713818300784E-14));
#1259 = ADVANCED_FACE('',(#1260),#1295,.T.);
#1260 = FACE_BOUND('',#1261,.T.);
#1261 = EDGE_LOOP('',(#1262,#1263,#1271,#1279,#1287,#1294));
#1262 = ORIENTED_EDGE('',*,*,#1247,.F.);
#1263 = ORIENTED_EDGE('',*,*,#1264,.F.);
#1264 = EDGE_CURVE('',#1265,#1240,#1267,.T.);
#1265 = VERTEX_POINT('',#1266);
#1266 = CARTESIAN_POINT('',(-58.2,-7.332437415781,-25.50015414744));
#1267 = LINE('',#1268,#1269);
#1268 = CARTESIAN_POINT('',(-53.925,-7.332437415781,-25.50015414744));
#1269 = VECTOR('',#1270,1.);
#1270 = DIRECTION('',(1.,-2.965E-14,1.712E-14));
#1271 = ORIENTED_EDGE('',*,*,#1272,.T.);
#1272 = EDGE_CURVE('',#1265,#1273,#1275,.T.);
#1273 = VERTEX_POINT('',#1274);
#1274 = CARTESIAN_POINT('',(-58.2,18.417562584222,19.100154147446));
#1275 = LINE('',#1276,#1277);
#1276 = CARTESIAN_POINT('',(-58.2,11.980062584221,7.950077073723));
#1277 = VECTOR('',#1278,1.);
#1278 = DIRECTION('',(0.,0.5,0.866025403784));
#1279 = ORIENTED_EDGE('',*,*,#1280,.T.);
#1280 = EDGE_CURVE('',#1273,#1281,#1283,.T.);
#1281 = VERTEX_POINT('',#1282);
#1282 = CARTESIAN_POINT('',(-53.5,18.417562584222,19.100154147446));
#1283 = LINE('',#1284,#1285);
#1284 = CARTESIAN_POINT('',(-53.925,18.417562584222,19.100154147446));
#1285 = VECTOR('',#1286,1.);
#1286 = DIRECTION('',(1.,-2.965E-14,1.712E-14));
#1287 = ORIENTED_EDGE('',*,*,#1288,.F.);
#1288 = EDGE_CURVE('',#978,#1281,#1289,.T.);
#1289 = CIRCLE('',#1290,3.000000000001);
#1290 = AXIS2_PLACEMENT_3D('',#1291,#1292,#1293);
#1291 = CARTESIAN_POINT('',(-53.5,19.917562584222,21.6982303588));
#1292 = DIRECTION('',(3.427E-14,0.866025403784,-0.5));
#1293 = DIRECTION('',(-1.,2.967685287726E-14,-1.713818300784E-14));
#1294 = ORIENTED_EDGE('',*,*,#985,.F.);
#1295 = PLANE('',#1296);
#1296 = AXIS2_PLACEMENT_3D('',#1297,#1298,#1299);
#1297 = CARTESIAN_POINT('',(-54.08138814868,5.54256570951,
    -3.199994586839));
#1298 = DIRECTION('',(3.434E-14,0.866025403784,-0.5));
#1299 = DIRECTION('',(0.,0.5,0.866025403784));
#1300 = ADVANCED_FACE('',(#1301),#1312,.T.);
#1301 = FACE_BOUND('',#1302,.T.);
#1302 = EDGE_LOOP('',(#1303,#1304,#1305,#1306));
#1303 = ORIENTED_EDGE('',*,*,#1053,.F.);
#1304 = ORIENTED_EDGE('',*,*,#977,.T.);
#1305 = ORIENTED_EDGE('',*,*,#1288,.T.);
#1306 = ORIENTED_EDGE('',*,*,#1307,.F.);
#1307 = EDGE_CURVE('',#1054,#1281,#1308,.T.);
#1308 = LINE('',#1309,#1310);
#1309 = CARTESIAN_POINT('',(-53.5,20.14961339179,18.100154147446));
#1310 = VECTOR('',#1311,1.);
#1311 = DIRECTION('',(-3.427E-14,-0.866025403784,0.5));
#1312 = CYLINDRICAL_SURFACE('',#1313,3.000000000001);
#1313 = AXIS2_PLACEMENT_3D('',#1314,#1315,#1316);
#1314 = CARTESIAN_POINT('',(-53.5,21.649613391791,20.6982303588));
#1315 = DIRECTION('',(3.427E-14,0.866025403784,-0.5));
#1316 = DIRECTION('',(-1.,2.967685287726E-14,-1.713818300784E-14));
#1317 = ADVANCED_FACE('',(#1318),#1337,.F.);
#1318 = FACE_BOUND('',#1319,.F.);
#1319 = EDGE_LOOP('',(#1320,#1328,#1335,#1336));
#1320 = ORIENTED_EDGE('',*,*,#1321,.T.);
#1321 = EDGE_CURVE('',#1018,#1322,#1324,.T.);
#1322 = VERTEX_POINT('',#1323);
#1323 = CARTESIAN_POINT('',(-55.5,-11.43051362713,-26.5982303588));
#1324 = LINE('',#1325,#1326);
#1325 = CARTESIAN_POINT('',(-55.5,-7.100386608214,-29.0982303588));
#1326 = VECTOR('',#1327,1.);
#1327 = DIRECTION('',(-3.427E-14,-0.866025403784,0.5));
#1328 = ORIENTED_EDGE('',*,*,#1329,.T.);
#1329 = EDGE_CURVE('',#1322,#1322,#1330,.T.);
#1330 = CIRCLE('',#1331,2.);
#1331 = AXIS2_PLACEMENT_3D('',#1332,#1333,#1334);
#1332 = CARTESIAN_POINT('',(-53.5,-11.43051362713,-26.5982303588));
#1333 = DIRECTION('',(3.448076211353E-14,0.866025403784,-0.5));
#1334 = DIRECTION('',(-1.,3.E-14,-1.7E-14));
#1335 = ORIENTED_EDGE('',*,*,#1321,.F.);
#1336 = ORIENTED_EDGE('',*,*,#1017,.F.);
#1337 = CYLINDRICAL_SURFACE('',#1338,2.);
#1338 = AXIS2_PLACEMENT_3D('',#1339,#1340,#1341);
#1339 = CARTESIAN_POINT('',(-53.5,-7.100386608214,-29.0982303588));
#1340 = DIRECTION('',(3.427E-14,0.866025403784,-0.5));
#1341 = DIRECTION('',(-1.,2.967685287726E-14,-1.713818300784E-14));
#1342 = ADVANCED_FACE('',(#1343),#1362,.F.);
#1343 = FACE_BOUND('',#1344,.F.);
#1344 = EDGE_LOOP('',(#1345,#1353,#1360,#1361));
#1345 = ORIENTED_EDGE('',*,*,#1346,.T.);
#1346 = EDGE_CURVE('',#1029,#1347,#1349,.T.);
#1347 = VERTEX_POINT('',#1348);
#1348 = CARTESIAN_POINT('',(-55.5,17.31948637287,23.198230358801));
#1349 = LINE('',#1350,#1351);
#1350 = CARTESIAN_POINT('',(-55.5,21.649613391791,20.6982303588));
#1351 = VECTOR('',#1352,1.);
#1352 = DIRECTION('',(-3.427E-14,-0.866025403784,0.5));
#1353 = ORIENTED_EDGE('',*,*,#1354,.T.);
#1354 = EDGE_CURVE('',#1347,#1347,#1355,.T.);
#1355 = CIRCLE('',#1356,2.);
#1356 = AXIS2_PLACEMENT_3D('',#1357,#1358,#1359);
#1357 = CARTESIAN_POINT('',(-53.5,17.319486372869,23.198230358801));
#1358 = DIRECTION('',(3.448076211353E-14,0.866025403784,-0.5));
#1359 = DIRECTION('',(-1.,3.E-14,-1.7E-14));
#1360 = ORIENTED_EDGE('',*,*,#1346,.F.);
#1361 = ORIENTED_EDGE('',*,*,#1028,.F.);
#1362 = CYLINDRICAL_SURFACE('',#1363,2.);
#1363 = AXIS2_PLACEMENT_3D('',#1364,#1365,#1366);
#1364 = CARTESIAN_POINT('',(-53.5,21.649613391791,20.6982303588));
#1365 = DIRECTION('',(3.427E-14,0.866025403784,-0.5));
#1366 = DIRECTION('',(-1.,2.967685287726E-14,-1.713818300784E-14));
#1367 = ADVANCED_FACE('',(#1368),#1387,.F.);
#1368 = FACE_BOUND('',#1369,.F.);
#1369 = EDGE_LOOP('',(#1370,#1378,#1385,#1386));
#1370 = ORIENTED_EDGE('',*,*,#1371,.T.);
#1371 = EDGE_CURVE('',#1040,#1372,#1374,.T.);
#1372 = VERTEX_POINT('',#1373);
#1373 = CARTESIAN_POINT('',(51.5,-11.43051362713,-26.5982303588));
#1374 = LINE('',#1375,#1376);
#1375 = CARTESIAN_POINT('',(51.5,-7.100386608217,-29.0982303588));
#1376 = VECTOR('',#1377,1.);
#1377 = DIRECTION('',(-3.427E-14,-0.866025403784,0.5));
#1378 = ORIENTED_EDGE('',*,*,#1379,.T.);
#1379 = EDGE_CURVE('',#1372,#1372,#1380,.T.);
#1380 = CIRCLE('',#1381,2.);
#1381 = AXIS2_PLACEMENT_3D('',#1382,#1383,#1384);
#1382 = CARTESIAN_POINT('',(53.5,-11.43051362713,-26.5982303588));
#1383 = DIRECTION('',(3.448076211353E-14,0.866025403784,-0.5));
#1384 = DIRECTION('',(-1.,3.E-14,-1.7E-14));
#1385 = ORIENTED_EDGE('',*,*,#1371,.F.);
#1386 = ORIENTED_EDGE('',*,*,#1039,.F.);
#1387 = CYLINDRICAL_SURFACE('',#1388,2.);
#1388 = AXIS2_PLACEMENT_3D('',#1389,#1390,#1391);
#1389 = CARTESIAN_POINT('',(53.5,-7.100386608217,-29.0982303588));
#1390 = DIRECTION('',(3.427E-14,0.866025403784,-0.5));
#1391 = DIRECTION('',(-1.,2.967685287726E-14,-1.713818300784E-14));
#1392 = ADVANCED_FACE('',(#1393),#1404,.F.);
#1393 = FACE_BOUND('',#1394,.F.);
#1394 = EDGE_LOOP('',(#1395,#1396,#1397,#1398));
#1395 = ORIENTED_EDGE('',*,*,#1121,.F.);
#1396 = ORIENTED_EDGE('',*,*,#1156,.T.);
#1397 = ORIENTED_EDGE('',*,*,#1181,.F.);
#1398 = ORIENTED_EDGE('',*,*,#1399,.F.);
#1399 = EDGE_CURVE('',#1114,#1182,#1400,.T.);
#1400 = LINE('',#1401,#1402);
#1401 = CARTESIAN_POINT('',(58.199988986058,20.149613391787,
    18.100154147448));
#1402 = VECTOR('',#1403,1.);
#1403 = DIRECTION('',(-3.427E-14,-0.866025403784,0.5));
#1404 = PLANE('',#1405);
#1405 = AXIS2_PLACEMENT_3D('',#1406,#1407,#1408);
#1406 = CARTESIAN_POINT('',(53.499988986058,20.149613391787,
    18.100154147448));
#1407 = DIRECTION('',(0.,0.5,0.866025403784));
#1408 = DIRECTION('',(1.,-2.968183771043E-14,1.713681699216E-14));
#1409 = ADVANCED_FACE('',(#1410),#1421,.F.);
#1410 = FACE_BOUND('',#1411,.F.);
#1411 = EDGE_LOOP('',(#1412,#1413,#1414,#1415));
#1412 = ORIENTED_EDGE('',*,*,#1113,.F.);
#1413 = ORIENTED_EDGE('',*,*,#1399,.T.);
#1414 = ORIENTED_EDGE('',*,*,#1189,.F.);
#1415 = ORIENTED_EDGE('',*,*,#1416,.F.);
#1416 = EDGE_CURVE('',#1106,#1190,#1417,.T.);
#1417 = LINE('',#1418,#1419);
#1418 = CARTESIAN_POINT('',(58.199988986058,-5.600386608216,
    -26.50015414744));
#1419 = VECTOR('',#1420,1.);
#1420 = DIRECTION('',(-3.427E-14,-0.866025403784,0.5));
#1421 = PLANE('',#1422);
#1422 = AXIS2_PLACEMENT_3D('',#1423,#1424,#1425);
#1423 = CARTESIAN_POINT('',(58.199988986058,20.149613391787,
    18.100154147448));
#1424 = DIRECTION('',(1.,-2.968E-14,1.714E-14));
#1425 = DIRECTION('',(3.67542086185E-18,-0.5,-0.866025403784));
#1426 = ADVANCED_FACE('',(#1427),#1438,.T.);
#1427 = FACE_BOUND('',#1428,.T.);
#1428 = EDGE_LOOP('',(#1429,#1430,#1431,#1432));
#1429 = ORIENTED_EDGE('',*,*,#1062,.F.);
#1430 = ORIENTED_EDGE('',*,*,#1307,.T.);
#1431 = ORIENTED_EDGE('',*,*,#1280,.F.);
#1432 = ORIENTED_EDGE('',*,*,#1433,.F.);
#1433 = EDGE_CURVE('',#1063,#1273,#1434,.T.);
#1434 = LINE('',#1435,#1436);
#1435 = CARTESIAN_POINT('',(-58.2,20.149613391791,18.100154147446));
#1436 = VECTOR('',#1437,1.);
#1437 = DIRECTION('',(-3.427E-14,-0.866025403784,0.5));
#1438 = PLANE('',#1439);
#1439 = AXIS2_PLACEMENT_3D('',#1440,#1441,#1442);
#1440 = CARTESIAN_POINT('',(-53.5,20.14961339179,18.100154147446));
#1441 = DIRECTION('',(-0.,-0.5,-0.866025403784));
#1442 = DIRECTION('',(-1.,2.968183771043E-14,-1.713681699216E-14));
#1443 = ADVANCED_FACE('',(#1444),#1450,.T.);
#1444 = FACE_BOUND('',#1445,.T.);
#1445 = EDGE_LOOP('',(#1446,#1447,#1448,#1449));
#1446 = ORIENTED_EDGE('',*,*,#1105,.F.);
#1447 = ORIENTED_EDGE('',*,*,#1224,.T.);
#1448 = ORIENTED_EDGE('',*,*,#1197,.F.);
#1449 = ORIENTED_EDGE('',*,*,#1416,.F.);
#1450 = PLANE('',#1451);
#1451 = AXIS2_PLACEMENT_3D('',#1452,#1453,#1454);
#1452 = CARTESIAN_POINT('',(53.499988986058,-5.600386608216,
    -26.50015414744));
#1453 = DIRECTION('',(0.,0.5,0.866025403784));
#1454 = DIRECTION('',(1.,-2.968183771043E-14,1.713681699216E-14));
#1455 = ADVANCED_FACE('',(#1456),#1467,.T.);
#1456 = FACE_BOUND('',#1457,.T.);
#1457 = EDGE_LOOP('',(#1458,#1459,#1460,#1461));
#1458 = ORIENTED_EDGE('',*,*,#1070,.F.);
#1459 = ORIENTED_EDGE('',*,*,#1433,.T.);
#1460 = ORIENTED_EDGE('',*,*,#1272,.F.);
#1461 = ORIENTED_EDGE('',*,*,#1462,.F.);
#1462 = EDGE_CURVE('',#1071,#1265,#1463,.T.);
#1463 = LINE('',#1464,#1465);
#1464 = CARTESIAN_POINT('',(-58.2,-5.600386608212,-26.50015414744));
#1465 = VECTOR('',#1466,1.);
#1466 = DIRECTION('',(-3.427E-14,-0.866025403784,0.5));
#1467 = PLANE('',#1468);
#1468 = AXIS2_PLACEMENT_3D('',#1469,#1470,#1471);
#1469 = CARTESIAN_POINT('',(-58.2,6.408587988005,-3.7));
#1470 = DIRECTION('',(1.,-3.09E-14,1.754E-14));
#1471 = DIRECTION('',(3.09E-14,1.,0.));
#1472 = ADVANCED_FACE('',(#1473),#1479,.F.);
#1473 = FACE_BOUND('',#1474,.F.);
#1474 = EDGE_LOOP('',(#1475,#1476,#1477,#1478));
#1475 = ORIENTED_EDGE('',*,*,#1078,.F.);
#1476 = ORIENTED_EDGE('',*,*,#1239,.T.);
#1477 = ORIENTED_EDGE('',*,*,#1264,.F.);
#1478 = ORIENTED_EDGE('',*,*,#1462,.F.);
#1479 = PLANE('',#1480);
#1480 = AXIS2_PLACEMENT_3D('',#1481,#1482,#1483);
#1481 = CARTESIAN_POINT('',(-53.5,-5.600386608213,-26.50015414744));
#1482 = DIRECTION('',(-0.,-0.5,-0.866025403784));
#1483 = DIRECTION('',(-1.,2.968183771043E-14,-1.713681699216E-14));
#1484 = ADVANCED_FACE('',(#1485),#1504,.F.);
#1485 = FACE_BOUND('',#1486,.F.);
#1486 = EDGE_LOOP('',(#1487,#1495,#1502,#1503));
#1487 = ORIENTED_EDGE('',*,*,#1488,.T.);
#1488 = EDGE_CURVE('',#1139,#1489,#1491,.T.);
#1489 = VERTEX_POINT('',#1490);
#1490 = CARTESIAN_POINT('',(51.5,17.319486372866,23.198230358803));
#1491 = LINE('',#1492,#1493);
#1492 = CARTESIAN_POINT('',(51.5,21.649613391788,20.698230358802));
#1493 = VECTOR('',#1494,1.);
#1494 = DIRECTION('',(-3.427E-14,-0.866025403784,0.5));
#1495 = ORIENTED_EDGE('',*,*,#1496,.T.);
#1496 = EDGE_CURVE('',#1489,#1489,#1497,.T.);
#1497 = CIRCLE('',#1498,2.);
#1498 = AXIS2_PLACEMENT_3D('',#1499,#1500,#1501);
#1499 = CARTESIAN_POINT('',(53.5,17.319486372866,23.198230358803));
#1500 = DIRECTION('',(3.448076211353E-14,0.866025403784,-0.5));
#1501 = DIRECTION('',(-1.,3.E-14,-1.7E-14));
#1502 = ORIENTED_EDGE('',*,*,#1488,.F.);
#1503 = ORIENTED_EDGE('',*,*,#1138,.F.);
#1504 = CYLINDRICAL_SURFACE('',#1505,2.);
#1505 = AXIS2_PLACEMENT_3D('',#1506,#1507,#1508);
#1506 = CARTESIAN_POINT('',(53.5,21.649613391788,20.698230358802));
#1507 = DIRECTION('',(3.427E-14,0.866025403784,-0.5));
#1508 = DIRECTION('',(-1.,2.967685287726E-14,-1.713818300784E-14));
#1509 = ADVANCED_FACE('',(#1510),#1513,.T.);
#1510 = FACE_BOUND('',#1511,.T.);
#1511 = EDGE_LOOP('',(#1512));
#1512 = ORIENTED_EDGE('',*,*,#1329,.T.);
#1513 = PLANE('',#1514);
#1514 = AXIS2_PLACEMENT_3D('',#1515,#1516,#1517);
#1515 = CARTESIAN_POINT('',(1.189E-13,2.944486372865,-1.699999999999));
#1516 = DIRECTION('',(3.427E-14,0.866025403784,-0.5));
#1517 = DIRECTION('',(0.,0.5,0.866025403784));
#1518 = ADVANCED_FACE('',(#1519),#1522,.T.);
#1519 = FACE_BOUND('',#1520,.T.);
#1520 = EDGE_LOOP('',(#1521));
#1521 = ORIENTED_EDGE('',*,*,#1354,.T.);
#1522 = PLANE('',#1523);
#1523 = AXIS2_PLACEMENT_3D('',#1524,#1525,#1526);
#1524 = CARTESIAN_POINT('',(1.189E-13,2.944486372865,-1.699999999999));
#1525 = DIRECTION('',(3.427E-14,0.866025403784,-0.5));
#1526 = DIRECTION('',(0.,0.5,0.866025403784));
#1527 = ADVANCED_FACE('',(#1528),#1531,.T.);
#1528 = FACE_BOUND('',#1529,.T.);
#1529 = EDGE_LOOP('',(#1530));
#1530 = ORIENTED_EDGE('',*,*,#1379,.T.);
#1531 = PLANE('',#1532);
#1532 = AXIS2_PLACEMENT_3D('',#1533,#1534,#1535);
#1533 = CARTESIAN_POINT('',(1.189E-13,2.944486372865,-1.699999999999));
#1534 = DIRECTION('',(3.427E-14,0.866025403784,-0.5));
#1535 = DIRECTION('',(0.,0.5,0.866025403784));
#1536 = ADVANCED_FACE('',(#1537),#1540,.T.);
#1537 = FACE_BOUND('',#1538,.T.);
#1538 = EDGE_LOOP('',(#1539));
#1539 = ORIENTED_EDGE('',*,*,#1496,.T.);
#1540 = PLANE('',#1541);
#1541 = AXIS2_PLACEMENT_3D('',#1542,#1543,#1544);
#1542 = CARTESIAN_POINT('',(1.189E-13,2.944486372865,-1.699999999999));
#1543 = DIRECTION('',(3.427E-14,0.866025403784,-0.5));
#1544 = DIRECTION('',(0.,0.5,0.866025403784));
#1545 = ( GEOMETRIC_REPRESENTATION_CONTEXT(3) 
GLOBAL_UNCERTAINTY_ASSIGNED_CONTEXT((#1549)) 
GLOBAL_UNIT_ASSIGNED_CONTEXT((#1546,#1547,#1548)) REPRESENTATION_CONTEXT
('Context #1','3D Context with UNIT and UNCERTAINTY') );
#1546 = ( LENGTH_UNIT() NAMED_UNIT(*) SI_UNIT(.MILLI.,.METRE.) );
#1547 = ( NAMED_UNIT(*) PLANE_ANGLE_UNIT() SI_UNIT($,.RADIAN.) );
#1548 = ( NAMED_UNIT(*) SI_UNIT($,.STERADIAN.) SOLID_ANGLE_UNIT() );
#1549 = UNCERTAINTY_MEASURE_WITH_UNIT(LENGTH_MEASURE(1.E-05),#1546,
  'distance_accuracy_value','confusion accuracy');
#1550 = PRODUCT_RELATED_PRODUCT_CATEGORY('part',$,(#7));
ENDSEC;
END-ISO-10303-21;
